<?xml version="1.0" encoding="UTF-8" standalone="no"?>
<!DOCTYPE svg PUBLIC "-//W3C//DTD SVG 1.1//EN"
 "http://www.w3.org/Graphics/SVG/1.1/DTD/svg11.dtd">
<!-- Generated by graphviz version 2.36.0 (20140111.2315)
 -->
<!-- Title: parser Pages: 1 -->
<svg width="1184pt" height="466pt"
 viewBox="0.00 0.00 1184.00 466.00" xmlns="http://www.w3.org/2000/svg" xmlns:xlink="http://www.w3.org/1999/xlink">
<g id="graph0" class="graph" transform="scale(1 1) rotate(0) translate(4 462)">
<title>parser</title>
<polygon fill="white" stroke="none" points="-4,4 -4,-462 1180,-462 1180,4 -4,4"/>
<g id="clust1" class="cluster"><title>cluster_fpdf_document</title>
<polygon fill="none" stroke="black" stroke-dasharray="1,5" points="338,-344 338,-450 669,-450 669,-344 338,-344"/>
</g>
<g id="clust2" class="cluster"><title>cluster_fpdf_avail</title>
<polygon fill="none" stroke="black" stroke-dasharray="1,5" points="8,-160 8,-212 303,-212 303,-160 8,-160"/>
</g>
<g id="clust3" class="cluster"><title>cluster_01</title>
<polygon fill="none" stroke="black" points="20,-310 20,-435 270,-435 270,-310 20,-310"/>
<text text-anchor="middle" x="145" y="-419.8" font-family="Times,serif" font-size="14.00">Legend</text>
</g>
<!-- CPDF_CryptoHandler -->
<g id="node1" class="node"><title>CPDF_CryptoHandler</title>
<polygon fill="none" stroke="black" points="304,-36 166,-36 166,-0 304,-0 304,-36"/>
<text text-anchor="middle" x="235" y="-14.3" font-family="Times,serif" font-size="14.00">CPDF_CryptoHandler</text>
</g>
<!-- CPDF_SecurityHandler -->
<g id="node11" class="node"><title>CPDF_SecurityHandler</title>
<polygon fill="none" stroke="black" points="486,-74 340,-74 340,-38 486,-38 486,-74"/>
<text text-anchor="middle" x="413" y="-52.3" font-family="Times,serif" font-size="14.00">CPDF_SecurityHandler</text>
</g>
<!-- CPDF_CryptoHandler&#45;&gt;CPDF_SecurityHandler -->
<g id="edge27" class="edge"><title>CPDF_CryptoHandler&#45;&gt;CPDF_SecurityHandler</title>
<path fill="none" stroke="gray" d="M304.046,-32.6918C312.459,-34.5081 321.128,-36.38 329.724,-38.236"/>
<polygon fill="gray" stroke="gray" points="329.249,-41.7139 339.762,-40.4032 330.726,-34.8715 329.249,-41.7139"/>
</g>
<!-- CPDF_DataAvail -->
<g id="node2" class="node"><title>CPDF_DataAvail</title>
<polygon fill="none" stroke="black" points="469.5,-204 356.5,-204 356.5,-168 469.5,-168 469.5,-204"/>
<text text-anchor="middle" x="413" y="-182.3" font-family="Times,serif" font-size="14.00">CPDF_DataAvail</text>
</g>
<!-- CPDF_Document -->
<g id="node3" class="node"><title>CPDF_Document</title>
<polygon fill="none" stroke="black" points="654,-388 540,-388 540,-352 654,-352 654,-388"/>
<text text-anchor="middle" x="597" y="-366.3" font-family="Times,serif" font-size="14.00">CPDF_Document</text>
</g>
<!-- CPDF_DataAvail&#45;&gt;CPDF_Document -->
<g id="edge13" class="edge"><title>CPDF_DataAvail&#45;&gt;CPDF_Document</title>
<path fill="none" stroke="gray" d="M459.087,-204.121C469.065,-209.874 478.797,-217.113 486,-226 517.982,-265.46 488.966,-298.837 516.323,-336.075"/>
<polygon fill="gray" stroke="gray" points="513.944,-338.683 523.059,-344.083 519.301,-334.177 513.944,-338.683"/>
</g>
<!-- CPDF_HintTables -->
<g id="node4" class="node"><title>CPDF_HintTables</title>
<polygon fill="none" stroke="black" points="655.5,-204 538.5,-204 538.5,-168 655.5,-168 655.5,-204"/>
<text text-anchor="middle" x="597" y="-182.3" font-family="Times,serif" font-size="14.00">CPDF_HintTables</text>
</g>
<!-- CPDF_DataAvail&#45;&gt;CPDF_HintTables -->
<g id="edge14" class="edge"><title>CPDF_DataAvail&#45;&gt;CPDF_HintTables</title>
<path fill="none" stroke="black" d="M469.595,-179.726C488.026,-179.205 508.753,-179.112 528.009,-179.446"/>
<polygon fill="black" stroke="black" points="528.153,-182.949 538.227,-179.667 528.305,-175.951 528.153,-182.949"/>
</g>
<!-- CPDF_LinearizedHeader -->
<g id="node6" class="node"><title>CPDF_LinearizedHeader</title>
<polygon fill="none" stroke="black" points="862,-158 708,-158 708,-122 862,-122 862,-158"/>
<text text-anchor="middle" x="785" y="-136.3" font-family="Times,serif" font-size="14.00">CPDF_LinearizedHeader</text>
</g>
<!-- CPDF_DataAvail&#45;&gt;CPDF_LinearizedHeader -->
<g id="edge12" class="edge"><title>CPDF_DataAvail&#45;&gt;CPDF_LinearizedHeader</title>
<path fill="none" stroke="black" d="M469.675,-170.132C486.377,-165.902 504.824,-161.749 522,-159 580.261,-149.676 646.55,-144.924 697.873,-142.504"/>
<polygon fill="black" stroke="black" points="698.099,-145.997 707.931,-142.05 697.783,-139.004 698.099,-145.997"/>
</g>
<!-- CPDF_PageObjectAvail -->
<g id="node8" class="node"><title>CPDF_PageObjectAvail</title>
<polygon fill="none" stroke="black" points="671.5,-334 522.5,-334 522.5,-298 671.5,-298 671.5,-334"/>
<text text-anchor="middle" x="597" y="-312.3" font-family="Times,serif" font-size="14.00">CPDF_PageObjectAvail</text>
</g>
<!-- CPDF_DataAvail&#45;&gt;CPDF_PageObjectAvail -->
<g id="edge15" class="edge"><title>CPDF_DataAvail&#45;&gt;CPDF_PageObjectAvail</title>
<path fill="none" stroke="black" d="M454.929,-204.061C465.792,-210.05 476.993,-217.419 486,-226 507.966,-246.928 499.026,-264.184 522,-284 525.713,-287.203 529.795,-290.128 534.077,-292.792"/>
<polygon fill="black" stroke="black" points="532.663,-296.014 543.089,-297.898 536.114,-289.923 532.663,-296.014"/>
</g>
<!-- CPDF_Parser -->
<g id="node9" class="node"><title>CPDF_Parser</title>
<polygon fill="none" stroke="black" points="642.5,-74 551.5,-74 551.5,-38 642.5,-38 642.5,-74"/>
<text text-anchor="middle" x="597" y="-52.3" font-family="Times,serif" font-size="14.00">CPDF_Parser</text>
</g>
<!-- CPDF_DataAvail&#45;&gt;CPDF_Parser -->
<g id="edge10" class="edge"><title>CPDF_DataAvail&#45;&gt;CPDF_Parser</title>
<path fill="none" stroke="black" d="M432.694,-167.65C458.245,-142.818 503.06,-100.208 522,-88 528.228,-83.9858 535.045,-80.2634 541.94,-76.8838"/>
<polygon fill="black" stroke="black" points="543.764,-79.895 551.344,-72.4925 540.802,-73.5524 543.764,-79.895"/>
</g>
<!-- CPDF_ReadValidator -->
<g id="node10" class="node"><title>CPDF_ReadValidator</title>
<polygon fill="none" stroke="black" points="1053,-242 917,-242 917,-206 1053,-206 1053,-242"/>
<text text-anchor="middle" x="985" y="-220.3" font-family="Times,serif" font-size="14.00">CPDF_ReadValidator</text>
</g>
<!-- CPDF_DataAvail&#45;&gt;CPDF_ReadValidator -->
<g id="edge9" class="edge"><title>CPDF_DataAvail&#45;&gt;CPDF_ReadValidator</title>
<path fill="none" stroke="green" d="M469.597,-202.395C486.297,-206.64 504.762,-210.669 522,-213 656.302,-231.159 814.517,-230.143 906.614,-227.351"/>
<polygon fill="green" stroke="green" points="906.804,-230.847 916.688,-227.03 906.582,-223.85 906.804,-230.847"/>
</g>
<!-- CPDF_SyntaxParser -->
<g id="node13" class="node"><title>CPDF_SyntaxParser</title>
<polygon fill="none" stroke="black" points="849,-89 721,-89 721,-53 849,-53 849,-89"/>
<text text-anchor="middle" x="785" y="-67.3" font-family="Times,serif" font-size="14.00">CPDF_SyntaxParser</text>
</g>
<!-- CPDF_DataAvail&#45;&gt;CPDF_SyntaxParser -->
<g id="edge11" class="edge"><title>CPDF_DataAvail&#45;&gt;CPDF_SyntaxParser</title>
<path fill="none" stroke="black" d="M452.711,-167.896C473.058,-158.795 498.575,-148.026 522,-140 584.705,-118.516 657.765,-99.7767 710.779,-87.2702"/>
<polygon fill="black" stroke="black" points="711.833,-90.6183 720.772,-84.9307 710.237,-83.8026 711.833,-90.6183"/>
</g>
<!-- FileAvail -->
<g id="node20" class="node"><title>FileAvail</title>
<polygon fill="none" stroke="black" points="1176,-265 1108,-265 1108,-229 1176,-229 1176,-265"/>
<text text-anchor="middle" x="1142" y="-243.3" font-family="Times,serif" font-size="14.00">FileAvail</text>
</g>
<!-- CPDF_DataAvail&#45;&gt;FileAvail -->
<g id="edge8" class="edge"><title>CPDF_DataAvail&#45;&gt;FileAvail</title>
<path fill="none" stroke="gray" d="M446.45,-204.225C467.336,-214.982 495.45,-227.691 522,-234 732.843,-284.099 995.518,-263.35 1097.61,-252.272"/>
<polygon fill="gray" stroke="gray" points="1098.28,-255.719 1107.83,-251.136 1097.51,-248.762 1098.28,-255.719"/>
</g>
<!-- CPDF_IndirectObjectHolder -->
<g id="node5" class="node"><title>CPDF_IndirectObjectHolder</title>
<polygon fill="none" stroke="black" points="1071.5,-388 898.5,-388 898.5,-352 1071.5,-352 1071.5,-388"/>
<text text-anchor="middle" x="985" y="-366.3" font-family="Times,serif" font-size="14.00">CPDF_IndirectObjectHolder</text>
</g>
<!-- CPDF_Document&#45;&gt;CPDF_IndirectObjectHolder -->
<g id="edge4" class="edge"><title>CPDF_Document&#45;&gt;CPDF_IndirectObjectHolder</title>
<path fill="none" stroke="black" stroke-dasharray="1,5" d="M668.895,-390.045C681.807,-392.938 695.231,-395.456 708,-397 775.949,-405.217 793.961,-404.439 862,-397 875.882,-395.482 890.497,-393.02 904.599,-390.185"/>
<polygon fill="black" stroke="black" points="905.685,-393.534 914.758,-388.063 904.254,-386.682 905.685,-393.534"/>
</g>
<!-- CPDF_Document&#45;&gt;CPDF_Parser -->
<g id="edge5" class="edge"><title>CPDF_Document&#45;&gt;CPDF_Parser</title>
<path fill="none" stroke="black" d="M512.46,-344.355C509.239,-341.285 506.378,-337.848 504,-334 484.606,-302.62 491.473,-202.697 504,-168 516.515,-133.338 544.943,-101.828 567.098,-81.1228"/>
<polygon fill="black" stroke="black" points="569.596,-83.5817 574.636,-74.2625 564.884,-78.4046 569.596,-83.5817"/>
</g>
<!-- CPDF_HintTables&#45;&gt;CPDF_DataAvail -->
<g id="edge6" class="edge"><title>CPDF_HintTables&#45;&gt;CPDF_DataAvail</title>
<path fill="none" stroke="gray" d="M538.227,-192.333C519.621,-192.82 498.868,-192.881 479.733,-192.513"/>
<polygon fill="gray" stroke="gray" points="479.675,-189.011 469.595,-192.274 479.509,-196.009 479.675,-189.011"/>
</g>
<!-- CPDF_HintTables&#45;&gt;CPDF_LinearizedHeader -->
<g id="edge7" class="edge"><title>CPDF_HintTables&#45;&gt;CPDF_LinearizedHeader</title>
<path fill="none" stroke="gray" d="M655.578,-171.76C669.931,-168.211 685.608,-164.333 700.922,-160.546"/>
<polygon fill="gray" stroke="gray" points="702.048,-163.873 710.915,-158.075 700.368,-157.078 702.048,-163.873"/>
</g>
<!-- CPDF_ObjectAvail -->
<g id="node7" class="node"><title>CPDF_ObjectAvail</title>
<polygon fill="none" stroke="black" points="846.5,-334 723.5,-334 723.5,-298 846.5,-298 846.5,-334"/>
<text text-anchor="middle" x="785" y="-312.3" font-family="Times,serif" font-size="14.00">CPDF_ObjectAvail</text>
</g>
<!-- CPDF_ObjectAvail&#45;&gt;CPDF_IndirectObjectHolder -->
<g id="edge17" class="edge"><title>CPDF_ObjectAvail&#45;&gt;CPDF_IndirectObjectHolder</title>
<path fill="none" stroke="gray" d="M846.752,-332.569C866.095,-337.844 887.74,-343.747 908.02,-349.278"/>
<polygon fill="gray" stroke="gray" points="907.282,-352.705 917.851,-351.959 909.124,-345.951 907.282,-352.705"/>
</g>
<!-- CPDF_ObjectAvail&#45;&gt;CPDF_ReadValidator -->
<g id="edge16" class="edge"><title>CPDF_ObjectAvail&#45;&gt;CPDF_ReadValidator</title>
<path fill="none" stroke="gray" d="M825.118,-297.824C856.847,-283.081 901.721,-262.231 935.691,-246.447"/>
<polygon fill="gray" stroke="gray" points="937.369,-249.526 944.963,-242.138 934.419,-243.178 937.369,-249.526"/>
</g>
<!-- CPDF_PageObjectAvail&#45;&gt;CPDF_ObjectAvail -->
<g id="edge18" class="edge"><title>CPDF_PageObjectAvail&#45;&gt;CPDF_ObjectAvail</title>
<path fill="none" stroke="black" stroke-dasharray="1,5" d="M671.512,-316C685.187,-316 699.451,-316 713.047,-316"/>
<polygon fill="black" stroke="black" points="713.294,-319.5 723.294,-316 713.294,-312.5 713.294,-319.5"/>
</g>
<!-- CPDF_Parser&#45;&gt;CPDF_Document -->
<g id="edge20" class="edge"><title>CPDF_Parser&#45;&gt;CPDF_Document</title>
<path fill="none" stroke="gray" d="M574.636,-74.2625C551.868,-94.4409 517.99,-129.252 504,-168 491.473,-202.697 484.606,-302.62 504,-334 504.513,-334.831 505.049,-335.642 505.606,-336.435"/>
<polygon fill="gray" stroke="gray" points="503.151,-338.947 512.333,-344.234 508.452,-334.375 503.151,-338.947"/>
</g>
<!-- CPDF_Parser&#45;&gt;CPDF_LinearizedHeader -->
<g id="edge22" class="edge"><title>CPDF_Parser&#45;&gt;CPDF_LinearizedHeader</title>
<path fill="none" stroke="black" d="M637.902,-74.0201C666.123,-86.7654 704.156,-103.941 734.341,-117.574"/>
<polygon fill="black" stroke="black" points="733.29,-120.939 743.844,-121.865 736.171,-114.559 733.29,-120.939"/>
</g>
<!-- CPDF_Parser&#45;&gt;CPDF_SecurityHandler -->
<g id="edge21" class="edge"><title>CPDF_Parser&#45;&gt;CPDF_SecurityHandler</title>
<path fill="none" stroke="black" d="M551.428,-61.8991C534.786,-62.5678 515.315,-62.8423 496.35,-62.7228"/>
<polygon fill="black" stroke="black" points="496.228,-59.2215 486.193,-62.6202 496.157,-66.2211 496.228,-59.2215"/>
</g>
<!-- CPDF_Parser&#45;&gt;CPDF_SyntaxParser -->
<g id="edge19" class="edge"><title>CPDF_Parser&#45;&gt;CPDF_SyntaxParser</title>
<path fill="none" stroke="black" d="M642.552,-59.5929C662.961,-61.2388 687.689,-63.233 710.724,-65.0907"/>
<polygon fill="black" stroke="black" points="710.571,-68.5896 720.82,-65.9048 711.134,-61.6122 710.571,-68.5896"/>
</g>
<!-- CPDF_ReadValidator&#45;&gt;FileAvail -->
<g id="edge26" class="edge"><title>CPDF_ReadValidator&#45;&gt;FileAvail</title>
<path fill="none" stroke="gray" d="M1053.08,-233.954C1068.21,-236.199 1083.87,-238.523 1097.72,-240.577"/>
<polygon fill="gray" stroke="gray" points="1097.5,-244.084 1107.91,-242.09 1098.53,-237.16 1097.5,-244.084"/>
</g>
<!-- CPDF_SecurityHandler&#45;&gt;CPDF_Parser -->
<g id="edge23" class="edge"><title>CPDF_SecurityHandler&#45;&gt;CPDF_Parser</title>
<path fill="none" stroke="gray" d="M486.193,-49.3798C504.438,-49.1247 523.738,-49.2457 540.984,-49.7428"/>
<polygon fill="gray" stroke="gray" points="541.314,-53.2561 551.428,-50.1009 541.554,-46.2602 541.314,-53.2561"/>
</g>
<!-- CPDF_SimpleParser -->
<g id="node12" class="node"><title>CPDF_SimpleParser</title>
<polygon fill="none" stroke="black" points="130,-272 0,-272 0,-236 130,-236 130,-272"/>
<text text-anchor="middle" x="65" y="-250.3" font-family="Times,serif" font-size="14.00">CPDF_SimpleParser</text>
</g>
<!-- CPDF_SyntaxParser&#45;&gt;CPDF_CryptoHandler -->
<g id="edge25" class="edge"><title>CPDF_SyntaxParser&#45;&gt;CPDF_CryptoHandler</title>
<path fill="none" stroke="green" d="M745.537,-52.9352C724.345,-43.9213 697.278,-33.9137 672,-29 548.847,-5.06015 402.469,-7.50135 314.518,-12.203"/>
<polygon fill="green" stroke="green" points="314.141,-8.71859 304.351,-12.7707 314.531,-15.7077 314.141,-8.71859"/>
</g>
<!-- CPDF_SyntaxParser&#45;&gt;CPDF_ReadValidator -->
<g id="edge24" class="edge"><title>CPDF_SyntaxParser&#45;&gt;CPDF_ReadValidator</title>
<path fill="none" stroke="green" d="M822.617,-89.0018C835.466,-95.893 849.744,-104.222 862,-113 898.341,-139.029 935.726,-174.588 959.369,-198.376"/>
<polygon fill="green" stroke="green" points="957.032,-200.991 966.543,-205.659 962.019,-196.078 957.032,-200.991"/>
</g>
<!-- CFDF_Document -->
<g id="node14" class="node"><title>CFDF_Document</title>
<polygon fill="none" stroke="black" points="842,-388 728,-388 728,-352 842,-352 842,-388"/>
<text text-anchor="middle" x="785" y="-366.3" font-family="Times,serif" font-size="14.00">CFDF_Document</text>
</g>
<!-- CFDF_Document&#45;&gt;CPDF_IndirectObjectHolder -->
<g id="edge28" class="edge"><title>CFDF_Document&#45;&gt;CPDF_IndirectObjectHolder</title>
<path fill="none" stroke="black" stroke-dasharray="1,5" d="M842.209,-370C856.559,-370 872.393,-370 888.123,-370"/>
<polygon fill="black" stroke="black" points="888.427,-373.5 898.427,-370 888.427,-366.5 888.427,-373.5"/>
</g>
<!-- CPDF_Creator -->
<g id="node15" class="node"><title>CPDF_Creator</title>
<polygon fill="none" stroke="black" points="114,-101 16,-101 16,-65 114,-65 114,-101"/>
<text text-anchor="middle" x="65" y="-79.3" font-family="Times,serif" font-size="14.00">CPDF_Creator</text>
</g>
<!-- CPDF_Creator&#45;&gt;CPDF_CryptoHandler -->
<g id="edge32" class="edge"><title>CPDF_Creator&#45;&gt;CPDF_CryptoHandler</title>
<path fill="none" stroke="green" d="M112.797,-64.8939C133.004,-57.0758 156.81,-47.8651 177.951,-39.6858"/>
<polygon fill="green" stroke="green" points="179.39,-42.8817 187.454,-36.009 176.864,-36.3533 179.39,-42.8817"/>
</g>
<!-- CPDF_Creator&#45;&gt;CPDF_Document -->
<g id="edge30" class="edge"><title>CPDF_Creator&#45;&gt;CPDF_Document</title>
<path fill="none" stroke="gray" d="M83.5405,-101.134C96.98,-115.457 115.6,-136.254 130,-156 148.324,-181.126 141.959,-196.273 166,-216 245.001,-280.824 353.436,-319.409 441.649,-341.745"/>
<polygon fill="gray" stroke="gray" points="440.932,-345.174 451.481,-344.189 442.621,-338.38 440.932,-345.174"/>
</g>
<!-- CPDF_Creator&#45;&gt;CPDF_Parser -->
<g id="edge31" class="edge"><title>CPDF_Creator&#45;&gt;CPDF_Parser</title>
<path fill="none" stroke="gray" d="M114.106,-86.8221C192.404,-92.1874 352.125,-99.5631 486,-83 504.271,-80.7395 523.891,-76.5211 541.429,-72.0792"/>
<polygon fill="gray" stroke="gray" points="542.698,-75.3652 551.488,-69.4512 540.928,-68.5925 542.698,-75.3652"/>
</g>
<!-- CPDF_Creator&#45;&gt;CPDF_SecurityHandler -->
<g id="edge33" class="edge"><title>CPDF_Creator&#45;&gt;CPDF_SecurityHandler</title>
<path fill="none" stroke="black" d="M114.11,-79.2458C169.833,-74.8974 262.572,-67.6605 329.792,-62.4151"/>
<polygon fill="black" stroke="black" points="330.237,-65.8911 339.934,-61.6236 329.692,-58.9123 330.237,-65.8911"/>
</g>
<!-- FPDF_DOCUMENT -->
<g id="node16" class="node"><title>FPDF_DOCUMENT</title>
<polygon fill="none" stroke="black" points="479.5,-415 346.5,-415 346.5,-379 479.5,-379 479.5,-415"/>
<text text-anchor="middle" x="413" y="-393.3" font-family="Times,serif" font-size="14.00">FPDF_DOCUMENT</text>
</g>
<!-- FPDF_DOCUMENT&#45;&gt;CPDF_Document -->
<g id="edge1" class="edge"><title>FPDF_DOCUMENT&#45;&gt;CPDF_Document</title>
<path fill="none" stroke="black" d="M479.706,-387.252C495.98,-384.838 513.426,-382.25 529.726,-379.832"/>
<polygon fill="black" stroke="black" points="530.329,-383.281 539.707,-378.351 529.302,-376.357 530.329,-383.281"/>
</g>
<!-- CPDFXFA_Context -->
<g id="node17" class="node"><title>CPDFXFA_Context</title>
<polygon fill="none" stroke="black" points="660.5,-442 533.5,-442 533.5,-406 660.5,-406 660.5,-442"/>
<text text-anchor="middle" x="597" y="-420.3" font-family="Times,serif" font-size="14.00">CPDFXFA_Context</text>
</g>
<!-- FPDF_DOCUMENT&#45;&gt;CPDFXFA_Context -->
<g id="edge2" class="edge"><title>FPDF_DOCUMENT&#45;&gt;CPDFXFA_Context</title>
<path fill="none" stroke="black" d="M479.706,-406.748C493.935,-408.859 509.061,-411.102 523.534,-413.249"/>
<polygon fill="black" stroke="black" points="523.024,-416.712 533.43,-414.718 524.051,-409.788 523.024,-416.712"/>
</g>
<!-- FPDF_AVAIL -->
<g id="node18" class="node"><title>FPDF_AVAIL</title>
<polygon fill="none" stroke="black" points="114,-204 16,-204 16,-168 114,-168 114,-204"/>
<text text-anchor="middle" x="65" y="-182.3" font-family="Times,serif" font-size="14.00">FPDF_AVAIL</text>
</g>
<!-- CFPDF_DataAvail -->
<g id="node19" class="node"><title>CFPDF_DataAvail</title>
<polygon fill="none" stroke="black" points="295,-204 175,-204 175,-168 295,-168 295,-204"/>
<text text-anchor="middle" x="235" y="-182.3" font-family="Times,serif" font-size="14.00">CFPDF_DataAvail</text>
</g>
<!-- FPDF_AVAIL&#45;&gt;CFPDF_DataAvail -->
<g id="edge3" class="edge"><title>FPDF_AVAIL&#45;&gt;CFPDF_DataAvail</title>
<path fill="none" stroke="black" d="M114.142,-186C129.8,-186 147.504,-186 164.405,-186"/>
<polygon fill="black" stroke="black" points="164.8,-189.5 174.8,-186 164.8,-182.5 164.8,-189.5"/>
</g>
<!-- CFPDF_DataAvail&#45;&gt;CPDF_DataAvail -->
<g id="edge29" class="edge"><title>CFPDF_DataAvail&#45;&gt;CPDF_DataAvail</title>
<path fill="none" stroke="gray" d="M302.871,-186C317.028,-186 331.961,-186 346.083,-186"/>
<polygon fill="gray" stroke="gray" points="346.333,-189.5 356.333,-186 346.333,-182.5 346.333,-189.5"/>
</g>
<!-- src -->
<g id="node21" class="node"><title>src</title>
<text text-anchor="start" x="55" y="-385.3" font-family="Times,serif" font-size="14.00">Inherit</text>
<text text-anchor="start" x="60" y="-365.8" font-family="Times,serif" font-size="14.00">Owns</text>
<text text-anchor="start" x="51" y="-346.8" font-family="Times,serif" font-size="14.00">Retains</text>
<text text-anchor="start" x="39" y="-327.8" font-family="Times,serif" font-size="14.00">Unowned</text>
</g>
<!-- sink -->
<g id="node22" class="node"><title>sink</title>
<text text-anchor="start" x="233.5" y="-385.3" font-family="Times,serif" font-size="14.00"> </text>
<text text-anchor="start" x="233.5" y="-365.8" font-family="Times,serif" font-size="14.00"> </text>
<text text-anchor="start" x="233.5" y="-346.8" font-family="Times,serif" font-size="14.00"> </text>
<text text-anchor="start" x="233.5" y="-327.8" font-family="Times,serif" font-size="14.00"> </text>
</g>
<!-- src&#45;&gt;sink -->
<g id="edge34" class="edge"><title>src:inherit:e&#45;&gt;sink:inherit:w</title>
<path fill="none" stroke="black" stroke-dasharray="1,5" d="M95,-389C151.484,-389 168.088,-389 219.899,-389"/>
<polygon fill="black" stroke="black" points="220,-392.5 230,-389 220,-385.5 220,-392.5"/>
</g>
<!-- src&#45;&gt;sink -->
<g id="edge35" class="edge"><title>src:own:e&#45;&gt;sink:own:w</title>
<path fill="none" stroke="black" d="M95,-370C151.484,-370 168.088,-370 219.899,-370"/>
<polygon fill="black" stroke="black" points="220,-373.5 230,-370 220,-366.5 220,-373.5"/>
</g>
<!-- src&#45;&gt;sink -->
<g id="edge36" class="edge"><title>src:retain:e&#45;&gt;sink:retain:w</title>
<path fill="none" stroke="green" d="M95,-350C151.484,-350 168.088,-350 219.899,-350"/>
<polygon fill="green" stroke="green" points="220,-353.5 230,-350 220,-346.5 220,-353.5"/>
</g>
<!-- src&#45;&gt;sink -->
<g id="edge37" class="edge"><title>src:unown:e&#45;&gt;sink:unown:w</title>
<path fill="none" stroke="gray" d="M95,-331C151.484,-331 168.088,-331 219.899,-331"/>
<polygon fill="gray" stroke="gray" points="220,-334.5 230,-331 220,-327.5 220,-334.5"/>
</g>
</g>
</svg>
