<?xml version="1.0" encoding="UTF-8" standalone="no"?>
<!DOCTYPE svg PUBLIC "-//W3C//DTD SVG 1.1//EN"
 "http://www.w3.org/Graphics/SVG/1.1/DTD/svg11.dtd">
<!-- Generated by graphviz version 2.36.0 (20140111.2315)
 -->
<!-- Title: parser Pages: 1 -->
<svg width="1238pt" height="458pt"
 viewBox="0.00 0.00 1238.00 458.00" xmlns="http://www.w3.org/2000/svg" xmlns:xlink="http://www.w3.org/1999/xlink">
<g id="graph0" class="graph" transform="scale(1 1) rotate(0) translate(4 454)">
<title>parser</title>
<polygon fill="white" stroke="none" points="-4,4 -4,-454 1234,-454 1234,4 -4,4"/>
<g id="clust1" class="cluster"><title>cluster_01</title>
<polygon fill="none" stroke="black" points="21,-315 21,-435 266,-435 266,-315 21,-315"/>
<text text-anchor="middle" x="143.5" y="-419.8" font-family="Times,serif" font-size="14.00">Legend</text>
</g>
<!-- CPDF_CryptoHandler -->
<g id="node1" class="node"><title>CPDF_CryptoHandler</title>
<polygon fill="none" stroke="black" points="1230,-403 1088,-403 1088,-367 1230,-367 1230,-403"/>
<text text-anchor="middle" x="1159" y="-380.8" font-family="Times,serif" font-size="14.00">CPDF_CryptoHandler</text>
</g>
<!-- CPDF_DataAvail -->
<g id="node2" class="node"><title>CPDF_DataAvail</title>
<polygon fill="none" stroke="black" points="462.021,-251 347.979,-251 347.979,-215 462.021,-215 462.021,-251"/>
<text text-anchor="middle" x="405" y="-228.8" font-family="Times,serif" font-size="14.00">CPDF_DataAvail</text>
</g>
<!-- CPDF_Document -->
<g id="node3" class="node"><title>CPDF_Document</title>
<polygon fill="none" stroke="black" points="639.338,-366 522.662,-366 522.662,-330 639.338,-330 639.338,-366"/>
<text text-anchor="middle" x="581" y="-343.8" font-family="Times,serif" font-size="14.00">CPDF_Document</text>
</g>
<!-- CPDF_DataAvail&#45;&gt;CPDF_Document -->
<g id="edge10" class="edge"><title>CPDF_DataAvail&#45;&gt;CPDF_Document</title>
<path fill="none" stroke="gray" d="M428.404,-251.289C450.487,-268.904 485.543,-295.782 518,-316 522.94,-319.077 528.209,-322.127 533.511,-325.05"/>
<polygon fill="gray" stroke="gray" points="531.945,-328.182 542.41,-329.834 535.26,-322.016 531.945,-328.182"/>
</g>
<!-- CPDF_HintTables -->
<g id="node4" class="node"><title>CPDF_HintTables</title>
<polygon fill="none" stroke="black" points="640.75,-90 521.25,-90 521.25,-54 640.75,-54 640.75,-90"/>
<text text-anchor="middle" x="581" y="-67.8" font-family="Times,serif" font-size="14.00">CPDF_HintTables</text>
</g>
<!-- CPDF_DataAvail&#45;&gt;CPDF_HintTables -->
<g id="edge11" class="edge"><title>CPDF_DataAvail&#45;&gt;CPDF_HintTables</title>
<path fill="none" stroke="black" d="M413.985,-214.814C429.592,-186.227 466.496,-131.597 513.272,-93.8658"/>
<polygon fill="black" stroke="black" points="515.423,-96.6269 521.174,-87.7288 511.129,-91.0984 515.423,-96.6269"/>
</g>
<!-- CPDF_LinearizedHeader -->
<g id="node6" class="node"><title>CPDF_LinearizedHeader</title>
<polygon fill="none" stroke="black" points="1052.28,-182 893.717,-182 893.717,-146 1052.28,-146 1052.28,-182"/>
<text text-anchor="middle" x="973" y="-159.8" font-family="Times,serif" font-size="14.00">CPDF_LinearizedHeader</text>
</g>
<!-- CPDF_DataAvail&#45;&gt;CPDF_LinearizedHeader -->
<g id="edge9" class="edge"><title>CPDF_DataAvail&#45;&gt;CPDF_LinearizedHeader</title>
<path fill="none" stroke="black" d="M451.898,-214.973C471.897,-207.871 495.799,-200.378 518,-196 643.344,-171.28 791.461,-165.021 883.583,-163.764"/>
<polygon fill="black" stroke="black" points="883.746,-167.263 893.703,-163.643 883.662,-160.263 883.746,-167.263"/>
</g>
<!-- CPDF_Parser -->
<g id="node9" class="node"><title>CPDF_Parser</title>
<polygon fill="none" stroke="black" points="815.507,-370 722.493,-370 722.493,-334 815.507,-334 815.507,-370"/>
<text text-anchor="middle" x="769" y="-347.8" font-family="Times,serif" font-size="14.00">CPDF_Parser</text>
</g>
<!-- CPDF_DataAvail&#45;&gt;CPDF_Parser -->
<g id="edge7" class="edge"><title>CPDF_DataAvail&#45;&gt;CPDF_Parser</title>
<path fill="none" stroke="black" d="M413.674,-251.006C428.44,-283.014 464.18,-348.903 518,-375 579.53,-404.835 659.538,-389.463 712.267,-373.089"/>
<polygon fill="black" stroke="black" points="713.662,-376.316 722.109,-369.922 711.518,-369.653 713.662,-376.316"/>
</g>
<!-- CPDF_ReadValidator -->
<g id="node10" class="node"><title>CPDF_ReadValidator</title>
<polygon fill="none" stroke="black" points="1228.1,-228 1089.9,-228 1089.9,-192 1228.1,-192 1228.1,-228"/>
<text text-anchor="middle" x="1159" y="-205.8" font-family="Times,serif" font-size="14.00">CPDF_ReadValidator</text>
</g>
<!-- CPDF_DataAvail&#45;&gt;CPDF_ReadValidator -->
<g id="edge6" class="edge"><title>CPDF_DataAvail&#45;&gt;CPDF_ReadValidator</title>
<path fill="none" stroke="green" d="M462.114,-230.93C479.976,-230.288 499.818,-229.595 518,-229 720.414,-222.381 958.872,-215.56 1079.55,-212.177"/>
<polygon fill="green" stroke="green" points="1079.9,-215.669 1089.8,-211.89 1079.7,-208.671 1079.9,-215.669"/>
</g>
<!-- CPDF_SyntaxParser -->
<g id="node13" class="node"><title>CPDF_SyntaxParser</title>
<polygon fill="none" stroke="black" points="1038.9,-318 907.103,-318 907.103,-282 1038.9,-282 1038.9,-318"/>
<text text-anchor="middle" x="973" y="-295.8" font-family="Times,serif" font-size="14.00">CPDF_SyntaxParser</text>
</g>
<!-- CPDF_DataAvail&#45;&gt;CPDF_SyntaxParser -->
<g id="edge8" class="edge"><title>CPDF_DataAvail&#45;&gt;CPDF_SyntaxParser</title>
<path fill="none" stroke="black" d="M437.685,-251.081C459.508,-262.533 489.586,-276.387 518,-283 648.559,-313.384 805.857,-310.918 896.852,-305.828"/>
<polygon fill="black" stroke="black" points="897.294,-309.308 907.072,-305.229 896.884,-302.32 897.294,-309.308"/>
</g>
<!-- FileAvail -->
<g id="node18" class="node"><title>FileAvail</title>
<polygon fill="none" stroke="black" points="614.851,-274 547.149,-274 547.149,-238 614.851,-238 614.851,-274"/>
<text text-anchor="middle" x="581" y="-251.8" font-family="Times,serif" font-size="14.00">FileAvail</text>
</g>
<!-- CPDF_DataAvail&#45;&gt;FileAvail -->
<g id="edge5" class="edge"><title>CPDF_DataAvail&#45;&gt;FileAvail</title>
<path fill="none" stroke="gray" d="M462.493,-240.467C486.76,-243.675 514.652,-247.362 537.171,-250.339"/>
<polygon fill="gray" stroke="gray" points="536.735,-253.811 547.107,-251.652 537.652,-246.872 536.735,-253.811"/>
</g>
<!-- CPDF_IndirectObjectHolder -->
<g id="node5" class="node"><title>CPDF_IndirectObjectHolder</title>
<polygon fill="none" stroke="black" points="857.745,-144 680.255,-144 680.255,-108 857.745,-108 857.745,-144"/>
<text text-anchor="middle" x="769" y="-121.8" font-family="Times,serif" font-size="14.00">CPDF_IndirectObjectHolder</text>
</g>
<!-- CPDF_Document&#45;&gt;CPDF_IndirectObjectHolder -->
<g id="edge1" class="edge"><title>CPDF_Document&#45;&gt;CPDF_IndirectObjectHolder</title>
<path fill="none" stroke="black" stroke-dasharray="1,5" d="M600.107,-329.935C612.729,-317.123 629.786,-299.366 644,-283 682.513,-238.656 724.251,-184.391 748.149,-152.661"/>
<polygon fill="black" stroke="black" points="751.195,-154.434 754.399,-144.336 745.597,-150.231 751.195,-154.434"/>
</g>
<!-- CPDF_Document&#45;&gt;CPDF_Parser -->
<g id="edge2" class="edge"><title>CPDF_Document&#45;&gt;CPDF_Parser</title>
<path fill="none" stroke="black" d="M639.324,-342.945C662.465,-342.814 689.08,-343.399 712.077,-344.549"/>
<polygon fill="black" stroke="black" points="712.186,-348.06 722.363,-345.116 712.571,-341.071 712.186,-348.06"/>
</g>
<!-- CPDF_HintTables&#45;&gt;CPDF_DataAvail -->
<g id="edge3" class="edge"><title>CPDF_HintTables&#45;&gt;CPDF_DataAvail</title>
<path fill="none" stroke="gray" d="M550.406,-90.0526C539.607,-94.9664 527.68,-100.753 518,-108 480.768,-135.875 447.942,-178.457 427.609,-206.176"/>
<polygon fill="gray" stroke="gray" points="424.519,-204.473 421.457,-214.616 430.176,-208.597 424.519,-204.473"/>
</g>
<!-- CPDF_HintTables&#45;&gt;CPDF_LinearizedHeader -->
<g id="edge4" class="edge"><title>CPDF_HintTables&#45;&gt;CPDF_LinearizedHeader</title>
<path fill="none" stroke="gray" d="M640.772,-70.7087C697.642,-71.0826 785.621,-75.9859 858,-99 887.005,-108.223 916.783,-125.521 938.628,-139.955"/>
<polygon fill="gray" stroke="gray" points="936.936,-143.035 947.183,-145.729 940.853,-137.233 936.936,-143.035"/>
</g>
<!-- CPDF_ObjectAvail -->
<g id="node7" class="node"><title>CPDF_ObjectAvail</title>
<polygon fill="none" stroke="black" points="643.91,-36 518.09,-36 518.09,-0 643.91,-0 643.91,-36"/>
<text text-anchor="middle" x="581" y="-13.8" font-family="Times,serif" font-size="14.00">CPDF_ObjectAvail</text>
</g>
<!-- CPDF_ObjectAvail&#45;&gt;CPDF_IndirectObjectHolder -->
<g id="edge13" class="edge"><title>CPDF_ObjectAvail&#45;&gt;CPDF_IndirectObjectHolder</title>
<path fill="none" stroke="gray" d="M626.134,-36.1273C632.214,-38.9399 638.317,-41.9345 644,-45 675.986,-62.2537 710.45,-85.1455 734.906,-102.191"/>
<polygon fill="gray" stroke="gray" points="732.923,-105.075 743.118,-107.957 736.945,-99.3463 732.923,-105.075"/>
</g>
<!-- CPDF_ObjectAvail&#45;&gt;CPDF_ReadValidator -->
<g id="edge12" class="edge"><title>CPDF_ObjectAvail&#45;&gt;CPDF_ReadValidator</title>
<path fill="none" stroke="gray" d="M644.066,-24.7565C737.065,-36.8082 916.147,-67.5803 1052,-137 1078.93,-150.762 1107.02,-170.378 1127.51,-185.811"/>
<polygon fill="gray" stroke="gray" points="1125.45,-188.642 1135.52,-191.925 1129.69,-183.077 1125.45,-188.642"/>
</g>
<!-- CPDF_PageObjectAvail -->
<g id="node8" class="node"><title>CPDF_PageObjectAvail</title>
<polygon fill="none" stroke="black" points="481.124,-36 328.876,-36 328.876,-0 481.124,-0 481.124,-36"/>
<text text-anchor="middle" x="405" y="-13.8" font-family="Times,serif" font-size="14.00">CPDF_PageObjectAvail</text>
</g>
<!-- CPDF_PageObjectAvail&#45;&gt;CPDF_ObjectAvail -->
<g id="edge14" class="edge"><title>CPDF_PageObjectAvail&#45;&gt;CPDF_ObjectAvail</title>
<path fill="none" stroke="black" stroke-dasharray="1,5" d="M481.307,-18C490.153,-18 499.163,-18 507.963,-18"/>
<polygon fill="black" stroke="black" points="508.174,-21.5001 518.174,-18 508.174,-14.5001 508.174,-21.5001"/>
</g>
<!-- CPDF_Parser&#45;&gt;CPDF_Document -->
<g id="edge16" class="edge"><title>CPDF_Parser&#45;&gt;CPDF_Document</title>
<path fill="none" stroke="gray" d="M722.363,-356.921C700.445,-357.309 673.737,-356.941 649.526,-355.972"/>
<polygon fill="gray" stroke="gray" points="649.469,-352.466 639.324,-355.52 649.159,-359.459 649.469,-352.466"/>
</g>
<!-- CPDF_Parser&#45;&gt;CPDF_LinearizedHeader -->
<g id="edge18" class="edge"><title>CPDF_Parser&#45;&gt;CPDF_LinearizedHeader</title>
<path fill="none" stroke="black" d="M789.369,-333.974C825.549,-300.301 903.47,-227.78 944.866,-189.254"/>
<polygon fill="black" stroke="black" points="947.458,-191.623 952.393,-182.248 942.689,-186.499 947.458,-191.623"/>
</g>
<!-- CPDF_SecurityHandler -->
<g id="node11" class="node"><title>CPDF_SecurityHandler</title>
<polygon fill="none" stroke="black" points="1047.77,-372 898.234,-372 898.234,-336 1047.77,-336 1047.77,-372"/>
<text text-anchor="middle" x="973" y="-349.8" font-family="Times,serif" font-size="14.00">CPDF_SecurityHandler</text>
</g>
<!-- CPDF_Parser&#45;&gt;CPDF_SecurityHandler -->
<g id="edge17" class="edge"><title>CPDF_Parser&#45;&gt;CPDF_SecurityHandler</title>
<path fill="none" stroke="black" d="M815.585,-346.701C836.959,-346.052 863.13,-346.006 887.905,-346.502"/>
<polygon fill="black" stroke="black" points="887.97,-350.004 898.049,-346.738 888.133,-343.006 887.97,-350.004"/>
</g>
<!-- CPDF_Parser&#45;&gt;CPDF_SyntaxParser -->
<g id="edge15" class="edge"><title>CPDF_Parser&#45;&gt;CPDF_SyntaxParser</title>
<path fill="none" stroke="black" d="M815.585,-340.265C839.628,-334.076 869.74,-326.324 897.106,-319.28"/>
<polygon fill="black" stroke="black" points="898.236,-322.603 907.048,-316.72 896.491,-315.824 898.236,-322.603"/>
</g>
<!-- CPDF_SecurityHandler&#45;&gt;CPDF_Parser -->
<g id="edge19" class="edge"><title>CPDF_SecurityHandler&#45;&gt;CPDF_Parser</title>
<path fill="none" stroke="gray" d="M898.049,-359.798C874.101,-359.959 847.962,-359.558 825.582,-358.653"/>
<polygon fill="gray" stroke="gray" points="825.732,-355.156 815.585,-358.202 825.417,-362.149 825.732,-355.156"/>
</g>
<!-- CPDF_SimpleParser -->
<g id="node12" class="node"><title>CPDF_SimpleParser</title>
<polygon fill="none" stroke="black" points="133.176,-305 0.823824,-305 0.823824,-269 133.176,-269 133.176,-305"/>
<text text-anchor="middle" x="67" y="-282.8" font-family="Times,serif" font-size="14.00">CPDF_SimpleParser</text>
</g>
<!-- CPDF_SyntaxParser&#45;&gt;CPDF_CryptoHandler -->
<g id="edge21" class="edge"><title>CPDF_SyntaxParser&#45;&gt;CPDF_CryptoHandler</title>
<path fill="none" stroke="green" d="M1029.84,-318.049C1037.36,-320.853 1044.92,-323.866 1052,-327 1074.95,-337.167 1099.61,-350.503 1119.36,-361.823"/>
<polygon fill="green" stroke="green" points="1117.66,-364.882 1128.07,-366.864 1121.17,-358.825 1117.66,-364.882"/>
</g>
<!-- CPDF_SyntaxParser&#45;&gt;CPDF_ReadValidator -->
<g id="edge20" class="edge"><title>CPDF_SyntaxParser&#45;&gt;CPDF_ReadValidator</title>
<path fill="none" stroke="green" d="M1011.24,-281.787C1040.26,-267.59 1080.72,-247.8 1111.81,-232.593"/>
<polygon fill="green" stroke="green" points="1113.69,-235.57 1121.13,-228.032 1110.61,-229.282 1113.69,-235.57"/>
</g>
<!-- CFDF_Document -->
<g id="node14" class="node"><title>CFDF_Document</title>
<polygon fill="none" stroke="black" points="639.338,-144 522.662,-144 522.662,-108 639.338,-108 639.338,-144"/>
<text text-anchor="middle" x="581" y="-121.8" font-family="Times,serif" font-size="14.00">CFDF_Document</text>
</g>
<!-- CFDF_Document&#45;&gt;CPDF_IndirectObjectHolder -->
<g id="edge22" class="edge"><title>CFDF_Document&#45;&gt;CPDF_IndirectObjectHolder</title>
<path fill="none" stroke="black" stroke-dasharray="1,5" d="M639.324,-126C649.111,-126 659.52,-126 670.014,-126"/>
<polygon fill="black" stroke="black" points="670.084,-129.5 680.084,-126 670.084,-122.5 670.084,-129.5"/>
</g>
<!-- FPDF_AVAIL -->
<g id="node15" class="node"><title>FPDF_AVAIL</title>
<polygon fill="none" stroke="black" points="115.405,-251 18.5949,-251 18.5949,-215 115.405,-215 115.405,-251"/>
<text text-anchor="middle" x="67" y="-228.8" font-family="Times,serif" font-size="14.00">FPDF_AVAIL</text>
</g>
<!-- CFPDF_DataAvail -->
<g id="node16" class="node"><title>CFPDF_DataAvail</title>
<polygon fill="none" stroke="black" points="292.306,-251 169.694,-251 169.694,-215 292.306,-215 292.306,-251"/>
<text text-anchor="middle" x="231" y="-228.8" font-family="Times,serif" font-size="14.00">CFPDF_DataAvail</text>
</g>
<!-- FPDF_AVAIL&#45;&gt;CFPDF_DataAvail -->
<g id="edge23" class="edge"><title>FPDF_AVAIL&#45;&gt;CFPDF_DataAvail</title>
<path fill="none" stroke="black" stroke-dasharray="1,5" d="M115.293,-233C129.103,-233 144.504,-233 159.426,-233"/>
<polygon fill="black" stroke="black" points="159.654,-236.5 169.654,-233 159.654,-229.5 159.654,-236.5"/>
</g>
<!-- CFPDF_DataAvail&#45;&gt;CPDF_DataAvail -->
<g id="edge24" class="edge"><title>CFPDF_DataAvail&#45;&gt;CPDF_DataAvail</title>
<path fill="none" stroke="gray" d="M292.157,-233C306.876,-233 322.708,-233 337.697,-233"/>
<polygon fill="gray" stroke="gray" points="337.915,-236.5 347.915,-233 337.915,-229.5 337.915,-236.5"/>
</g>
<!-- CPDF_Creator -->
<g id="node17" class="node"><title>CPDF_Creator</title>
<polygon fill="none" stroke="black" points="455,-450 355,-450 355,-414 455,-414 455,-450"/>
<text text-anchor="middle" x="405" y="-427.8" font-family="Times,serif" font-size="14.00">CPDF_Creator</text>
</g>
<!-- CPDF_Creator&#45;&gt;CPDF_CryptoHandler -->
<g id="edge27" class="edge"><title>CPDF_Creator&#45;&gt;CPDF_CryptoHandler</title>
<path fill="none" stroke="green" d="M455.258,-433.308C503.409,-434.278 578.783,-434.975 644,-432 797.83,-424.982 976.752,-406.207 1077.76,-394.622"/>
<polygon fill="green" stroke="green" points="1078.35,-398.077 1087.89,-393.454 1077.55,-391.123 1078.35,-398.077"/>
</g>
<!-- CPDF_Creator&#45;&gt;CPDF_Document -->
<g id="edge25" class="edge"><title>CPDF_Creator&#45;&gt;CPDF_Document</title>
<path fill="none" stroke="gray" d="M443.327,-413.98C469.614,-401.29 504.999,-384.207 533.178,-370.604"/>
<polygon fill="gray" stroke="gray" points="534.951,-373.635 542.435,-366.135 531.907,-367.331 534.951,-373.635"/>
</g>
<!-- CPDF_Creator&#45;&gt;CPDF_Parser -->
<g id="edge26" class="edge"><title>CPDF_Creator&#45;&gt;CPDF_Parser</title>
<path fill="none" stroke="gray" d="M455.148,-431.65C503.863,-430.236 580.228,-425.125 644,-408 672.699,-400.293 703.136,-386.638 726.673,-374.741"/>
<polygon fill="gray" stroke="gray" points="728.371,-377.803 735.661,-370.115 725.167,-371.579 728.371,-377.803"/>
</g>
<!-- src -->
<g id="node19" class="node"><title>src</title>
<text text-anchor="start" x="57.6826" y="-386.3" font-family="Times,serif" font-size="14.00">Inherit</text>
<text text-anchor="start" x="62.3311" y="-367.8" font-family="Times,serif" font-size="14.00">Owns</text>
<text text-anchor="start" x="53.0068" y="-349.8" font-family="Times,serif" font-size="14.00">Retains</text>
<text text-anchor="start" x="40.5654" y="-331.8" font-family="Times,serif" font-size="14.00">Unowned</text>
</g>
<!-- sink -->
<g id="node20" class="node"><title>sink</title>
<text text-anchor="start" x="229.25" y="-386.3" font-family="Times,serif" font-size="14.00"> </text>
<text text-anchor="start" x="229.25" y="-367.8" font-family="Times,serif" font-size="14.00"> </text>
<text text-anchor="start" x="229.25" y="-349.8" font-family="Times,serif" font-size="14.00"> </text>
<text text-anchor="start" x="229.25" y="-331.8" font-family="Times,serif" font-size="14.00"> </text>
</g>
<!-- src&#45;&gt;sink -->
<g id="edge28" class="edge"><title>src:inherit:e&#45;&gt;sink:inherit:w</title>
<path fill="none" stroke="black" stroke-dasharray="1,5" d="M98,-391C151.333,-391 167.167,-391 215.812,-391"/>
<polygon fill="black" stroke="black" points="216,-394.5 226,-391 216,-387.5 216,-394.5"/>
</g>
<!-- src&#45;&gt;sink -->
<g id="edge29" class="edge"><title>src:own:e&#45;&gt;sink:own:w</title>
<path fill="none" stroke="black" d="M98,-372C151.333,-372 167.167,-372 215.812,-372"/>
<polygon fill="black" stroke="black" points="216,-375.5 226,-372 216,-368.5 216,-375.5"/>
</g>
<!-- src&#45;&gt;sink -->
<g id="edge30" class="edge"><title>src:retain:e&#45;&gt;sink:retain:w</title>
<path fill="none" stroke="green" d="M98,-354C151.333,-354 167.167,-354 215.812,-354"/>
<polygon fill="green" stroke="green" points="216,-357.5 226,-354 216,-350.5 216,-357.5"/>
</g>
<!-- src&#45;&gt;sink -->
<g id="edge31" class="edge"><title>src:unown:e&#45;&gt;sink:unown:w</title>
<path fill="none" stroke="gray" d="M98,-336C151.333,-336 167.167,-336 215.812,-336"/>
<polygon fill="gray" stroke="gray" points="216,-339.5 226,-336 216,-332.5 216,-339.5"/>
</g>
</g>
</svg>
