<?xml version="1.0" encoding="UTF-8" standalone="no"?>
<!DOCTYPE svg PUBLIC "-//W3C//DTD SVG 1.1//EN"
 "http://www.w3.org/Graphics/SVG/1.1/DTD/svg11.dtd">
<!-- Generated by graphviz version 2.36.0 (20140111.2315)
 -->
<!-- Title: parser Pages: 1 -->
<svg width="1108pt" height="461pt"
 viewBox="0.00 0.00 1108.00 461.47" xmlns="http://www.w3.org/2000/svg" xmlns:xlink="http://www.w3.org/1999/xlink">
<g id="graph0" class="graph" transform="scale(1 1) rotate(0) translate(4 457.472)">
<title>parser</title>
<polygon fill="white" stroke="none" points="-4,4 -4,-457.472 1104,-457.472 1104,4 -4,4"/>
<g id="clust1" class="cluster"><title>cluster_01</title>
<polygon fill="none" stroke="black" points="21,-320.472 21,-445.472 277,-445.472 277,-320.472 21,-320.472"/>
<text text-anchor="middle" x="149" y="-430.272" font-family="Times,serif" font-size="14.00">Legend</text>
</g>
<!-- CPDF_CryptoHandler -->
<g id="node1" class="node"><title>CPDF_CryptoHandler</title>
<polygon fill="none" stroke="black" points="313.5,-164.472 170.5,-164.472 170.5,-128.472 313.5,-128.472 313.5,-164.472"/>
<text text-anchor="middle" x="242" y="-142.772" font-family="Times,serif" font-size="14.00">CPDF_CryptoHandler</text>
</g>
<!-- CPDF_SecurityHandler -->
<g id="node11" class="node"><title>CPDF_SecurityHandler</title>
<polygon fill="none" stroke="black" points="500,-126.472 350,-126.472 350,-90.4723 500,-90.4723 500,-126.472"/>
<text text-anchor="middle" x="425" y="-104.772" font-family="Times,serif" font-size="14.00">CPDF_SecurityHandler</text>
</g>
<!-- CPDF_CryptoHandler&#45;&gt;CPDF_SecurityHandler -->
<g id="edge25" class="edge"><title>CPDF_CryptoHandler&#45;&gt;CPDF_SecurityHandler</title>
<path fill="none" stroke="gray" d="M313.757,-131.617C322.33,-129.817 331.151,-127.965 339.892,-126.13"/>
<polygon fill="gray" stroke="gray" points="340.642,-129.549 349.71,-124.069 339.204,-122.699 340.642,-129.549"/>
</g>
<!-- CPDF_DataAvail -->
<g id="node2" class="node"><title>CPDF_DataAvail</title>
<polygon fill="none" stroke="black" points="483,-256.472 367,-256.472 367,-220.472 483,-220.472 483,-256.472"/>
<text text-anchor="middle" x="425" y="-234.772" font-family="Times,serif" font-size="14.00">CPDF_DataAvail</text>
</g>
<!-- CPDF_Document -->
<g id="node3" class="node"><title>CPDF_Document</title>
<polygon fill="none" stroke="black" points="864.5,-126.472 747.5,-126.472 747.5,-90.4723 864.5,-90.4723 864.5,-126.472"/>
<text text-anchor="middle" x="806" y="-104.772" font-family="Times,serif" font-size="14.00">CPDF_Document</text>
</g>
<!-- CPDF_DataAvail&#45;&gt;CPDF_Document -->
<g id="edge12" class="edge"><title>CPDF_DataAvail&#45;&gt;CPDF_Document</title>
<path fill="none" stroke="gray" d="M478.559,-220.402C538.448,-199.818 639.26,-165.185 726,-135.472 731.228,-133.682 736.65,-131.825 742.094,-129.963"/>
<polygon fill="gray" stroke="gray" points="743.549,-133.164 751.878,-126.617 741.284,-126.541 743.549,-133.164"/>
</g>
<!-- CPDF_HintTables -->
<g id="node4" class="node"><title>CPDF_HintTables</title>
<polygon fill="none" stroke="black" points="673.5,-256.472 552.5,-256.472 552.5,-220.472 673.5,-220.472 673.5,-256.472"/>
<text text-anchor="middle" x="613" y="-234.772" font-family="Times,serif" font-size="14.00">CPDF_HintTables</text>
</g>
<!-- CPDF_DataAvail&#45;&gt;CPDF_HintTables -->
<g id="edge13" class="edge"><title>CPDF_DataAvail&#45;&gt;CPDF_HintTables</title>
<path fill="none" stroke="black" d="M483.07,-232.192C501.803,-231.678 522.834,-231.586 542.39,-231.916"/>
<polygon fill="black" stroke="black" points="542.391,-235.416 552.462,-232.127 542.538,-228.418 542.391,-235.416"/>
</g>
<!-- CPDF_LinearizedHeader -->
<g id="node6" class="node"><title>CPDF_LinearizedHeader</title>
<polygon fill="none" stroke="black" points="885.5,-234.472 726.5,-234.472 726.5,-198.472 885.5,-198.472 885.5,-234.472"/>
<text text-anchor="middle" x="806" y="-212.772" font-family="Times,serif" font-size="14.00">CPDF_LinearizedHeader</text>
</g>
<!-- CPDF_DataAvail&#45;&gt;CPDF_LinearizedHeader -->
<g id="edge11" class="edge"><title>CPDF_DataAvail&#45;&gt;CPDF_LinearizedHeader</title>
<path fill="none" stroke="black" d="M483.178,-221.676C500.037,-217.477 518.626,-213.573 536,-211.472 595.776,-204.243 663.558,-205.562 716.128,-208.654"/>
<polygon fill="black" stroke="black" points="716.234,-212.167 726.432,-209.294 716.668,-205.18 716.234,-212.167"/>
</g>
<!-- CPDF_PageObjectAvail -->
<g id="node8" class="node"><title>CPDF_PageObjectAvail</title>
<polygon fill="none" stroke="black" points="690,-310.472 536,-310.472 536,-274.472 690,-274.472 690,-310.472"/>
<text text-anchor="middle" x="613" y="-288.772" font-family="Times,serif" font-size="14.00">CPDF_PageObjectAvail</text>
</g>
<!-- CPDF_DataAvail&#45;&gt;CPDF_PageObjectAvail -->
<g id="edge14" class="edge"><title>CPDF_DataAvail&#45;&gt;CPDF_PageObjectAvail</title>
<path fill="none" stroke="black" d="M483.07,-255.041C501.076,-260.268 521.204,-266.112 540.105,-271.6"/>
<polygon fill="black" stroke="black" points="539.28,-275.005 549.86,-274.432 541.232,-268.282 539.28,-275.005"/>
</g>
<!-- CPDF_Parser -->
<g id="node9" class="node"><title>CPDF_Parser</title>
<polygon fill="none" stroke="black" points="660,-126.472 566,-126.472 566,-90.4723 660,-90.4723 660,-126.472"/>
<text text-anchor="middle" x="613" y="-104.772" font-family="Times,serif" font-size="14.00">CPDF_Parser</text>
</g>
<!-- CPDF_DataAvail&#45;&gt;CPDF_Parser -->
<g id="edge9" class="edge"><title>CPDF_DataAvail&#45;&gt;CPDF_Parser</title>
<path fill="none" stroke="black" d="M442.814,-220.205C463.219,-198.865 499.45,-163.548 536,-140.472 542.325,-136.479 549.234,-132.783 556.226,-129.429"/>
<polygon fill="black" stroke="black" points="558.122,-132.41 565.763,-125.071 555.213,-126.043 558.122,-132.41"/>
</g>
<!-- CPDF_ReadValidator -->
<g id="node10" class="node"><title>CPDF_ReadValidator</title>
<polygon fill="none" stroke="black" points="1081,-410.472 941,-410.472 941,-374.472 1081,-374.472 1081,-410.472"/>
<text text-anchor="middle" x="1011" y="-388.772" font-family="Times,serif" font-size="14.00">CPDF_ReadValidator</text>
</g>
<!-- CPDF_DataAvail&#45;&gt;CPDF_ReadValidator -->
<g id="edge8" class="edge"><title>CPDF_DataAvail&#45;&gt;CPDF_ReadValidator</title>
<path fill="none" stroke="green" d="M432.16,-256.708C445.108,-291.876 478.77,-368.585 536,-402.472 665.113,-478.924 850.704,-441.421 946.864,-413.491"/>
<polygon fill="green" stroke="green" points="948.137,-416.765 956.731,-410.568 946.149,-410.053 948.137,-416.765"/>
</g>
<!-- CPDF_SyntaxParser -->
<g id="node13" class="node"><title>CPDF_SyntaxParser</title>
<polygon fill="none" stroke="black" points="872,-410.472 740,-410.472 740,-374.472 872,-374.472 872,-410.472"/>
<text text-anchor="middle" x="806" y="-388.772" font-family="Times,serif" font-size="14.00">CPDF_SyntaxParser</text>
</g>
<!-- CPDF_DataAvail&#45;&gt;CPDF_SyntaxParser -->
<g id="edge10" class="edge"><title>CPDF_DataAvail&#45;&gt;CPDF_SyntaxParser</title>
<path fill="none" stroke="black" d="M434.73,-256.931C450.257,-287.398 485.822,-347.426 536,-373.472 595.753,-404.489 673.254,-406.656 729.711,-402.597"/>
<polygon fill="black" stroke="black" points="730.31,-406.06 739.999,-401.772 729.751,-399.082 730.31,-406.06"/>
</g>
<!-- FileAvail -->
<g id="node19" class="node"><title>FileAvail</title>
<polygon fill="none" stroke="black" points="647.5,-364.472 578.5,-364.472 578.5,-328.472 647.5,-328.472 647.5,-364.472"/>
<text text-anchor="middle" x="613" y="-342.772" font-family="Times,serif" font-size="14.00">FileAvail</text>
</g>
<!-- CPDF_DataAvail&#45;&gt;FileAvail -->
<g id="edge7" class="edge"><title>CPDF_DataAvail&#45;&gt;FileAvail</title>
<path fill="none" stroke="gray" d="M446.665,-256.595C467.894,-274.487 502.484,-301.68 536,-319.472 546.132,-324.851 557.562,-329.552 568.422,-333.459"/>
<polygon fill="gray" stroke="gray" points="567.586,-336.873 578.181,-336.819 569.866,-330.254 567.586,-336.873"/>
</g>
<!-- CPDF_IndirectObjectHolder -->
<g id="node5" class="node"><title>CPDF_IndirectObjectHolder</title>
<polygon fill="none" stroke="black" points="1100,-180.472 922,-180.472 922,-144.472 1100,-144.472 1100,-180.472"/>
<text text-anchor="middle" x="1011" y="-158.772" font-family="Times,serif" font-size="14.00">CPDF_IndirectObjectHolder</text>
</g>
<!-- CPDF_Document&#45;&gt;CPDF_IndirectObjectHolder -->
<g id="edge3" class="edge"><title>CPDF_Document&#45;&gt;CPDF_IndirectObjectHolder</title>
<path fill="none" stroke="black" stroke-dasharray="1,5" d="M864.629,-123.802C885.663,-129.397 909.81,-135.821 932.304,-141.804"/>
<polygon fill="black" stroke="black" points="931.602,-145.239 942.166,-144.428 933.402,-138.475 931.602,-145.239"/>
</g>
<!-- CPDF_Document&#45;&gt;CPDF_Parser -->
<g id="edge4" class="edge"><title>CPDF_Document&#45;&gt;CPDF_Parser</title>
<path fill="none" stroke="black" d="M747.22,-114.731C722.844,-115.399 694.562,-115.386 670.343,-114.69"/>
<polygon fill="black" stroke="black" points="670.348,-111.189 660.236,-114.351 670.112,-118.185 670.348,-111.189"/>
</g>
<!-- CPDF_HintTables&#45;&gt;CPDF_DataAvail -->
<g id="edge5" class="edge"><title>CPDF_HintTables&#45;&gt;CPDF_DataAvail</title>
<path fill="none" stroke="gray" d="M552.462,-244.818C533.622,-245.293 512.669,-245.349 493.323,-244.988"/>
<polygon fill="gray" stroke="gray" points="493.148,-241.483 483.07,-244.753 492.987,-248.482 493.148,-241.483"/>
</g>
<!-- CPDF_HintTables&#45;&gt;CPDF_LinearizedHeader -->
<g id="edge6" class="edge"><title>CPDF_HintTables&#45;&gt;CPDF_LinearizedHeader</title>
<path fill="none" stroke="gray" d="M673.648,-231.602C687.166,-230.045 701.805,-228.359 716.237,-226.696"/>
<polygon fill="gray" stroke="gray" points="716.646,-230.172 726.18,-225.551 715.845,-223.218 716.646,-230.172"/>
</g>
<!-- CPDF_ObjectAvail -->
<g id="node7" class="node"><title>CPDF_ObjectAvail</title>
<polygon fill="none" stroke="black" points="869.5,-310.472 742.5,-310.472 742.5,-274.472 869.5,-274.472 869.5,-310.472"/>
<text text-anchor="middle" x="806" y="-288.772" font-family="Times,serif" font-size="14.00">CPDF_ObjectAvail</text>
</g>
<!-- CPDF_ObjectAvail&#45;&gt;CPDF_IndirectObjectHolder -->
<g id="edge16" class="edge"><title>CPDF_ObjectAvail&#45;&gt;CPDF_IndirectObjectHolder</title>
<path fill="none" stroke="gray" d="M836.739,-274.254C851.589,-265.099 869.799,-253.786 886,-243.472 915.751,-224.532 949.216,-202.636 973.876,-186.389"/>
<polygon fill="gray" stroke="gray" points="976.119,-189.102 982.54,-180.674 972.265,-183.259 976.119,-189.102"/>
</g>
<!-- CPDF_ObjectAvail&#45;&gt;CPDF_ReadValidator -->
<g id="edge15" class="edge"><title>CPDF_ObjectAvail&#45;&gt;CPDF_ReadValidator</title>
<path fill="none" stroke="gray" d="M843.762,-310.582C877.429,-327.167 927.407,-351.786 963.769,-369.698"/>
<polygon fill="gray" stroke="gray" points="962.652,-373.05 973.169,-374.329 965.745,-366.77 962.652,-373.05"/>
</g>
<!-- CPDF_PageObjectAvail&#45;&gt;CPDF_ObjectAvail -->
<g id="edge17" class="edge"><title>CPDF_PageObjectAvail&#45;&gt;CPDF_ObjectAvail</title>
<path fill="none" stroke="black" stroke-dasharray="1,5" d="M690.037,-292.472C703.881,-292.472 718.295,-292.472 732.048,-292.472"/>
<polygon fill="black" stroke="black" points="732.415,-295.972 742.415,-292.472 732.415,-288.972 732.415,-295.972"/>
</g>
<!-- CPDF_Parser&#45;&gt;CPDF_Document -->
<g id="edge19" class="edge"><title>CPDF_Parser&#45;&gt;CPDF_Document</title>
<path fill="none" stroke="gray" d="M660.236,-102.594C683.233,-101.7 711.479,-101.493 736.896,-101.975"/>
<polygon fill="gray" stroke="gray" points="737.142,-105.482 747.22,-102.214 737.303,-98.4838 737.142,-105.482"/>
</g>
<!-- CPDF_Parser&#45;&gt;CPDF_LinearizedHeader -->
<g id="edge21" class="edge"><title>CPDF_Parser&#45;&gt;CPDF_LinearizedHeader</title>
<path fill="none" stroke="black" d="M635.053,-126.654C656.678,-144.592 691.904,-171.82 726,-189.472 729.449,-191.258 733.042,-192.966 736.71,-194.592"/>
<polygon fill="black" stroke="black" points="735.37,-197.826 745.946,-198.466 738.078,-191.37 735.37,-197.826"/>
</g>
<!-- CPDF_Parser&#45;&gt;CPDF_SecurityHandler -->
<g id="edge20" class="edge"><title>CPDF_Parser&#45;&gt;CPDF_SecurityHandler</title>
<path fill="none" stroke="black" d="M565.769,-114.398C548.946,-115.046 529.362,-115.312 510.272,-115.196"/>
<polygon fill="black" stroke="black" points="510.08,-111.694 500.047,-115.096 510.012,-118.694 510.08,-111.694"/>
</g>
<!-- CPDF_Parser&#45;&gt;CPDF_SyntaxParser -->
<g id="edge18" class="edge"><title>CPDF_Parser&#45;&gt;CPDF_SyntaxParser</title>
<path fill="none" stroke="black" d="M630.196,-126.646C647.065,-146.355 673.314,-179.321 690,-211.472 713.307,-256.381 698.556,-276.965 726,-319.472 737.99,-338.042 755.781,-355.046 771.446,-367.963"/>
<polygon fill="black" stroke="black" points="769.408,-370.814 779.402,-374.331 773.782,-365.349 769.408,-370.814"/>
</g>
<!-- CPDF_SecurityHandler&#45;&gt;CPDF_Parser -->
<g id="edge22" class="edge"><title>CPDF_SecurityHandler&#45;&gt;CPDF_Parser</title>
<path fill="none" stroke="gray" d="M500.047,-101.848C518.593,-101.598 538.19,-101.72 555.714,-102.213"/>
<polygon fill="gray" stroke="gray" points="555.659,-105.713 565.769,-102.547 555.891,-98.7172 555.659,-105.713"/>
</g>
<!-- CPDF_SimpleParser -->
<g id="node12" class="node"><title>CPDF_SimpleParser</title>
<polygon fill="none" stroke="black" points="133.5,-310.472 0.5,-310.472 0.5,-274.472 133.5,-274.472 133.5,-310.472"/>
<text text-anchor="middle" x="67" y="-288.772" font-family="Times,serif" font-size="14.00">CPDF_SimpleParser</text>
</g>
<!-- CPDF_SyntaxParser&#45;&gt;CPDF_CryptoHandler -->
<g id="edge24" class="edge"><title>CPDF_SyntaxParser&#45;&gt;CPDF_CryptoHandler</title>
<path fill="none" stroke="green" d="M739.921,-407.304C684.315,-417.085 602.931,-424.461 536,-402.472 438.459,-370.427 420.879,-339.752 350,-265.472 330.087,-244.604 332.774,-233.37 314,-211.472 301.749,-197.183 286.536,-182.886 273.338,-171.354"/>
<polygon fill="green" stroke="green" points="275.291,-168.417 265.425,-164.555 270.729,-173.727 275.291,-168.417"/>
</g>
<!-- CPDF_SyntaxParser&#45;&gt;CPDF_ReadValidator -->
<g id="edge23" class="edge"><title>CPDF_SyntaxParser&#45;&gt;CPDF_ReadValidator</title>
<path fill="none" stroke="green" d="M872.068,-392.472C890.733,-392.472 911.293,-392.472 930.712,-392.472"/>
<polygon fill="green" stroke="green" points="930.747,-395.972 940.747,-392.472 930.747,-388.972 930.747,-395.972"/>
</g>
<!-- CFDF_Document -->
<g id="node14" class="node"><title>CFDF_Document</title>
<polygon fill="none" stroke="black" points="864.5,-180.472 747.5,-180.472 747.5,-144.472 864.5,-144.472 864.5,-180.472"/>
<text text-anchor="middle" x="806" y="-158.772" font-family="Times,serif" font-size="14.00">CFDF_Document</text>
</g>
<!-- CFDF_Document&#45;&gt;CPDF_IndirectObjectHolder -->
<g id="edge26" class="edge"><title>CFDF_Document&#45;&gt;CPDF_IndirectObjectHolder</title>
<path fill="none" stroke="black" stroke-dasharray="1,5" d="M864.629,-162.472C879.383,-162.472 895.67,-162.472 911.843,-162.472"/>
<polygon fill="black" stroke="black" points="911.884,-165.972 921.884,-162.472 911.884,-158.972 911.884,-165.972"/>
</g>
<!-- FPDF_AVAIL -->
<g id="node15" class="node"><title>FPDF_AVAIL</title>
<polygon fill="none" stroke="black" points="117.5,-256.472 16.5,-256.472 16.5,-220.472 117.5,-220.472 117.5,-256.472"/>
<text text-anchor="middle" x="67" y="-234.772" font-family="Times,serif" font-size="14.00">FPDF_AVAIL</text>
</g>
<!-- CFPDF_DataAvail -->
<g id="node16" class="node"><title>CFPDF_DataAvail</title>
<polygon fill="none" stroke="black" points="304,-256.472 180,-256.472 180,-220.472 304,-220.472 304,-256.472"/>
<text text-anchor="middle" x="242" y="-234.772" font-family="Times,serif" font-size="14.00">CFPDF_DataAvail</text>
</g>
<!-- FPDF_AVAIL&#45;&gt;CFPDF_DataAvail -->
<g id="edge2" class="edge"><title>FPDF_AVAIL&#45;&gt;CFPDF_DataAvail</title>
<path fill="none" stroke="black" d="M117.575,-238.472C133.767,-238.472 152.084,-238.472 169.556,-238.472"/>
<polygon fill="black" stroke="black" points="169.723,-241.972 179.723,-238.472 169.723,-234.972 169.723,-241.972"/>
</g>
<!-- CFPDF_DataAvail&#45;&gt;CPDF_DataAvail -->
<g id="edge27" class="edge"><title>CFPDF_DataAvail&#45;&gt;CPDF_DataAvail</title>
<path fill="none" stroke="gray" d="M304.026,-238.472C321.013,-238.472 339.555,-238.472 356.871,-238.472"/>
<polygon fill="gray" stroke="gray" points="356.904,-241.972 366.904,-238.472 356.904,-234.972 356.904,-241.972"/>
</g>
<!-- CPDF_Creator -->
<g id="node17" class="node"><title>CPDF_Creator</title>
<polygon fill="none" stroke="black" points="117.5,-99.4723 16.5,-99.4723 16.5,-63.4723 117.5,-63.4723 117.5,-99.4723"/>
<text text-anchor="middle" x="67" y="-77.7723" font-family="Times,serif" font-size="14.00">CPDF_Creator</text>
</g>
<!-- CPDF_Creator&#45;&gt;CPDF_CryptoHandler -->
<g id="edge30" class="edge"><title>CPDF_Creator&#45;&gt;CPDF_CryptoHandler</title>
<path fill="none" stroke="green" d="M116.19,-99.5784C137.092,-107.432 161.734,-116.69 183.576,-124.897"/>
<polygon fill="green" stroke="green" points="182.476,-128.222 193.068,-128.463 184.938,-121.67 182.476,-128.222"/>
</g>
<!-- CPDF_Creator&#45;&gt;CPDF_Document -->
<g id="edge28" class="edge"><title>CPDF_Creator&#45;&gt;CPDF_Document</title>
<path fill="none" stroke="gray" d="M117.81,-64.431C225.209,-30.4037 485.406,37.3479 690,-27.4723 724.626,-38.4425 757.835,-64.0073 779.586,-83.5049"/>
<polygon fill="gray" stroke="gray" points="777.332,-86.1862 787.063,-90.3755 782.068,-81.032 777.332,-86.1862"/>
</g>
<!-- CPDF_Creator&#45;&gt;CPDF_Parser -->
<g id="edge29" class="edge"><title>CPDF_Creator&#45;&gt;CPDF_Parser</title>
<path fill="none" stroke="gray" d="M117.789,-77.6726C198.414,-72.3707 362.406,-65.1215 500,-81.4723 518.346,-83.6525 538.035,-87.7746 555.709,-92.1534"/>
<polygon fill="gray" stroke="gray" points="555.301,-95.6617 565.856,-94.7485 557.035,-88.8799 555.301,-95.6617"/>
</g>
<!-- CPDF_Creator&#45;&gt;CPDF_SecurityHandler -->
<g id="edge31" class="edge"><title>CPDF_Creator&#45;&gt;CPDF_SecurityHandler</title>
<path fill="none" stroke="black" d="M117.5,-85.2265C174.952,-89.5838 270.646,-96.8415 339.842,-102.09"/>
<polygon fill="black" stroke="black" points="339.615,-105.582 349.851,-102.849 340.145,-98.6023 339.615,-105.582"/>
</g>
<!-- FPDF_DOCUMENT -->
<g id="node18" class="node"><title>FPDF_DOCUMENT</title>
<polygon fill="none" stroke="black" points="681,-72.4723 545,-72.4723 545,-36.4723 681,-36.4723 681,-72.4723"/>
<text text-anchor="middle" x="613" y="-50.7723" font-family="Times,serif" font-size="14.00">FPDF_DOCUMENT</text>
</g>
<!-- FPDF_DOCUMENT&#45;&gt;CPDF_Document -->
<g id="edge1" class="edge"><title>FPDF_DOCUMENT&#45;&gt;CPDF_Document</title>
<path fill="none" stroke="black" d="M677.866,-72.5286C697.07,-77.958 718.198,-83.9314 737.622,-89.423"/>
<polygon fill="black" stroke="black" points="736.729,-92.8075 747.304,-92.1602 738.633,-86.0716 736.729,-92.8075"/>
</g>
<!-- src -->
<g id="node20" class="node"><title>src</title>
<text text-anchor="start" x="57" y="-395.772" font-family="Times,serif" font-size="14.00">Inherit</text>
<text text-anchor="start" x="62" y="-376.272" font-family="Times,serif" font-size="14.00">Owns</text>
<text text-anchor="start" x="53" y="-357.272" font-family="Times,serif" font-size="14.00">Retains</text>
<text text-anchor="start" x="40" y="-338.272" font-family="Times,serif" font-size="14.00">Unowned</text>
</g>
<!-- sink -->
<g id="node21" class="node"><title>sink</title>
<text text-anchor="start" x="240.5" y="-395.772" font-family="Times,serif" font-size="14.00"> </text>
<text text-anchor="start" x="240.5" y="-376.272" font-family="Times,serif" font-size="14.00"> </text>
<text text-anchor="start" x="240.5" y="-357.272" font-family="Times,serif" font-size="14.00"> </text>
<text text-anchor="start" x="240.5" y="-338.272" font-family="Times,serif" font-size="14.00"> </text>
</g>
<!-- src&#45;&gt;sink -->
<g id="edge32" class="edge"><title>src:inherit:e&#45;&gt;sink:inherit:w</title>
<path fill="none" stroke="black" stroke-dasharray="1,5" d="M98,-399.472C156.279,-399.472 173.324,-399.472 226.932,-399.472"/>
<polygon fill="black" stroke="black" points="227,-402.972 237,-399.472 227,-395.972 227,-402.972"/>
</g>
<!-- src&#45;&gt;sink -->
<g id="edge33" class="edge"><title>src:own:e&#45;&gt;sink:own:w</title>
<path fill="none" stroke="black" d="M98,-380.472C156.279,-380.472 173.324,-380.472 226.932,-380.472"/>
<polygon fill="black" stroke="black" points="227,-383.972 237,-380.472 227,-376.972 227,-383.972"/>
</g>
<!-- src&#45;&gt;sink -->
<g id="edge34" class="edge"><title>src:retain:e&#45;&gt;sink:retain:w</title>
<path fill="none" stroke="green" d="M98,-360.472C156.279,-360.472 173.324,-360.472 226.932,-360.472"/>
<polygon fill="green" stroke="green" points="227,-363.972 237,-360.472 227,-356.972 227,-363.972"/>
</g>
<!-- src&#45;&gt;sink -->
<g id="edge35" class="edge"><title>src:unown:e&#45;&gt;sink:unown:w</title>
<path fill="none" stroke="gray" d="M98,-341.472C156.279,-341.472 173.324,-341.472 226.932,-341.472"/>
<polygon fill="gray" stroke="gray" points="227,-344.972 237,-341.472 227,-337.972 227,-344.972"/>
</g>
</g>
</svg>
