<?xml version="1.0" encoding="UTF-8" standalone="no"?>
<!DOCTYPE svg PUBLIC "-//W3C//DTD SVG 1.1//EN"
 "http://www.w3.org/Graphics/SVG/1.1/DTD/svg11.dtd">
<!-- Generated by graphviz version 2.36.0 (20140111.2315)
 -->
<!-- Title: parser Pages: 1 -->
<svg width="1318pt" height="618pt"
 viewBox="0.00 0.00 1318.00 618.10" xmlns="http://www.w3.org/2000/svg" xmlns:xlink="http://www.w3.org/1999/xlink">
<g id="graph0" class="graph" transform="scale(1 1) rotate(0) translate(4 614.102)">
<title>parser</title>
<polygon fill="white" stroke="none" points="-4,4 -4,-614.102 1314,-614.102 1314,4 -4,4"/>
<g id="clust1" class="cluster"><title>cluster_01</title>
<polygon fill="none" stroke="black" points="20,-477.102 20,-602.102 250,-602.102 250,-477.102 20,-477.102"/>
<text text-anchor="middle" x="135" y="-586.902" font-family="Times,serif" font-size="14.00">Legend</text>
</g>
<!-- CPDF_CryptoHandler -->
<g id="node1" class="node"><title>CPDF_CryptoHandler</title>
<polygon fill="none" stroke="black" points="438,-387.102 300,-387.102 300,-351.102 438,-351.102 438,-387.102"/>
<text text-anchor="middle" x="369" y="-365.402" font-family="Times,serif" font-size="14.00">CPDF_CryptoHandler</text>
</g>
<!-- CPDF_SecurityHandler -->
<g id="node11" class="node"><title>CPDF_SecurityHandler</title>
<polygon fill="none" stroke="black" points="620,-349.102 474,-349.102 474,-313.102 620,-313.102 620,-349.102"/>
<text text-anchor="middle" x="547" y="-327.402" font-family="Times,serif" font-size="14.00">CPDF_SecurityHandler</text>
</g>
<!-- CPDF_CryptoHandler&#45;&gt;CPDF_SecurityHandler -->
<g id="edge30" class="edge"><title>CPDF_CryptoHandler&#45;&gt;CPDF_SecurityHandler</title>
<path fill="none" stroke="gray" d="M438.046,-354.41C446.459,-352.593 455.128,-350.722 463.724,-348.866"/>
<polygon fill="gray" stroke="gray" points="464.726,-352.23 473.762,-346.698 463.249,-345.388 464.726,-352.23"/>
</g>
<!-- CPDF_DataAvail -->
<g id="node2" class="node"><title>CPDF_DataAvail</title>
<polygon fill="none" stroke="black" points="603.5,-200.102 490.5,-200.102 490.5,-164.102 603.5,-164.102 603.5,-200.102"/>
<text text-anchor="middle" x="547" y="-178.402" font-family="Times,serif" font-size="14.00">CPDF_DataAvail</text>
</g>
<!-- CPDF_Document -->
<g id="node3" class="node"><title>CPDF_Document</title>
<polygon fill="none" stroke="black" points="976,-381.102 862,-381.102 862,-345.102 976,-345.102 976,-381.102"/>
<text text-anchor="middle" x="919" y="-359.402" font-family="Times,serif" font-size="14.00">CPDF_Document</text>
</g>
<!-- CPDF_DataAvail&#45;&gt;CPDF_Document -->
<g id="edge16" class="edge"><title>CPDF_DataAvail&#45;&gt;CPDF_Document</title>
<path fill="none" stroke="gray" d="M573.279,-200.225C594.609,-214.969 626.327,-235.631 656,-250.102 719.686,-281.159 745.085,-267.91 806,-304.102 824.404,-315.036 823.573,-325.206 842,-336.102 845.362,-338.089 848.893,-339.964 852.517,-341.728"/>
<polygon fill="gray" stroke="gray" points="851.12,-344.937 861.672,-345.882 854.012,-338.563 851.12,-344.937"/>
</g>
<!-- CPDF_HintTables -->
<g id="node4" class="node"><title>CPDF_HintTables</title>
<polygon fill="none" stroke="black" points="789.5,-181.102 672.5,-181.102 672.5,-145.102 789.5,-145.102 789.5,-181.102"/>
<text text-anchor="middle" x="731" y="-159.402" font-family="Times,serif" font-size="14.00">CPDF_HintTables</text>
</g>
<!-- CPDF_DataAvail&#45;&gt;CPDF_HintTables -->
<g id="edge17" class="edge"><title>CPDF_DataAvail&#45;&gt;CPDF_HintTables</title>
<path fill="none" stroke="black" d="M603.595,-170.024C622.026,-167.579 642.753,-165.322 662.009,-163.645"/>
<polygon fill="black" stroke="black" points="662.549,-167.112 672.227,-162.8 661.972,-160.136 662.549,-167.112"/>
</g>
<!-- CPDF_LinearizedHeader -->
<g id="node6" class="node"><title>CPDF_LinearizedHeader</title>
<polygon fill="none" stroke="black" points="996,-181.102 842,-181.102 842,-145.102 996,-145.102 996,-181.102"/>
<text text-anchor="middle" x="919" y="-159.402" font-family="Times,serif" font-size="14.00">CPDF_LinearizedHeader</text>
</g>
<!-- CPDF_DataAvail&#45;&gt;CPDF_LinearizedHeader -->
<g id="edge15" class="edge"><title>CPDF_DataAvail&#45;&gt;CPDF_LinearizedHeader</title>
<path fill="none" stroke="black" d="M580.917,-163.966C601.752,-153.543 629.642,-141.481 656,-136.102 721.32,-122.77 739.799,-128.235 806,-136.102 818.538,-137.592 831.702,-139.988 844.422,-142.754"/>
<polygon fill="black" stroke="black" points="843.981,-146.243 854.507,-145.041 845.529,-139.416 843.981,-146.243"/>
</g>
<!-- CPDF_PageObjectAvail -->
<g id="node8" class="node"><title>CPDF_PageObjectAvail</title>
<polygon fill="none" stroke="black" points="805.5,-89.1016 656.5,-89.1016 656.5,-53.1016 805.5,-53.1016 805.5,-89.1016"/>
<text text-anchor="middle" x="731" y="-67.4016" font-family="Times,serif" font-size="14.00">CPDF_PageObjectAvail</text>
</g>
<!-- CPDF_DataAvail&#45;&gt;CPDF_PageObjectAvail -->
<g id="edge18" class="edge"><title>CPDF_DataAvail&#45;&gt;CPDF_PageObjectAvail</title>
<path fill="none" stroke="black" d="M569.761,-163.924C590.897,-146.827 624.346,-121.219 656,-103.102 661.877,-99.7381 668.175,-96.5031 674.525,-93.4682"/>
<polygon fill="black" stroke="black" points="676.213,-96.544 683.823,-89.1732 673.277,-90.1892 676.213,-96.544"/>
</g>
<!-- CPDF_Parser -->
<g id="node9" class="node"><title>CPDF_Parser</title>
<polygon fill="none" stroke="black" points="776.5,-349.102 685.5,-349.102 685.5,-313.102 776.5,-313.102 776.5,-349.102"/>
<text text-anchor="middle" x="731" y="-327.402" font-family="Times,serif" font-size="14.00">CPDF_Parser</text>
</g>
<!-- CPDF_DataAvail&#45;&gt;CPDF_Parser -->
<g id="edge13" class="edge"><title>CPDF_DataAvail&#45;&gt;CPDF_Parser</title>
<path fill="none" stroke="black" d="M560.79,-200.141C579.326,-225.194 615.861,-270.641 656,-299.102 662.123,-303.443 668.928,-307.37 675.86,-310.865"/>
<polygon fill="black" stroke="black" points="674.805,-314.238 685.34,-315.362 677.805,-307.914 674.805,-314.238"/>
</g>
<!-- CPDF_ReadValidator -->
<g id="node10" class="node"><title>CPDF_ReadValidator</title>
<polygon fill="none" stroke="black" points="1187,-177.102 1051,-177.102 1051,-141.102 1187,-141.102 1187,-177.102"/>
<text text-anchor="middle" x="1119" y="-155.402" font-family="Times,serif" font-size="14.00">CPDF_ReadValidator</text>
</g>
<!-- CPDF_DataAvail&#45;&gt;CPDF_ReadValidator -->
<g id="edge12" class="edge"><title>CPDF_DataAvail&#45;&gt;CPDF_ReadValidator</title>
<path fill="none" stroke="green" d="M603.795,-188.158C688.808,-196.247 855.709,-207.647 996,-190.102 1013.49,-187.914 1032.07,-184.027 1049.32,-179.729"/>
<polygon fill="green" stroke="green" points="1050.49,-183.042 1059.31,-177.16 1048.75,-176.262 1050.49,-183.042"/>
</g>
<!-- CPDF_SyntaxParser -->
<g id="node13" class="node"><title>CPDF_SyntaxParser</title>
<polygon fill="none" stroke="black" points="983,-273.102 855,-273.102 855,-237.102 983,-237.102 983,-273.102"/>
<text text-anchor="middle" x="919" y="-251.402" font-family="Times,serif" font-size="14.00">CPDF_SyntaxParser</text>
</g>
<!-- CPDF_DataAvail&#45;&gt;CPDF_SyntaxParser -->
<g id="edge14" class="edge"><title>CPDF_DataAvail&#45;&gt;CPDF_SyntaxParser</title>
<path fill="none" stroke="black" d="M588.541,-200.156C608.494,-208.349 633.122,-217.45 656,-223.102 718.69,-238.588 791.751,-246.721 844.77,-250.904"/>
<polygon fill="black" stroke="black" points="844.526,-254.396 854.763,-251.665 845.058,-247.416 844.526,-254.396"/>
</g>
<!-- FileAvail -->
<g id="node21" class="node"><title>FileAvail</title>
<polygon fill="none" stroke="black" points="1310,-110.102 1242,-110.102 1242,-74.1016 1310,-74.1016 1310,-110.102"/>
<text text-anchor="middle" x="1276" y="-88.4016" font-family="Times,serif" font-size="14.00">FileAvail</text>
</g>
<!-- CPDF_DataAvail&#45;&gt;FileAvail -->
<g id="edge11" class="edge"><title>CPDF_DataAvail&#45;&gt;FileAvail</title>
<path fill="none" stroke="gray" d="M555.699,-163.867C570.077,-132.503 604.309,-69.2866 656,-44.1016 853.128,51.9439 1127.86,-34.9736 1232.36,-74.7149"/>
<polygon fill="gray" stroke="gray" points="1231.35,-78.0743 1241.93,-78.4058 1233.86,-71.5428 1231.35,-78.0743"/>
</g>
<!-- CPDF_IndirectObjectHolder -->
<g id="node5" class="node"><title>CPDF_IndirectObjectHolder</title>
<polygon fill="none" stroke="black" points="1205.5,-327.102 1032.5,-327.102 1032.5,-291.102 1205.5,-291.102 1205.5,-327.102"/>
<text text-anchor="middle" x="1119" y="-305.402" font-family="Times,serif" font-size="14.00">CPDF_IndirectObjectHolder</text>
</g>
<!-- CPDF_Document&#45;&gt;CPDF_IndirectObjectHolder -->
<g id="edge7" class="edge"><title>CPDF_Document&#45;&gt;CPDF_IndirectObjectHolder</title>
<path fill="none" stroke="black" stroke-dasharray="1,5" d="M976.209,-347.772C996.633,-342.202 1020.07,-335.811 1041.92,-329.85"/>
<polygon fill="black" stroke="black" points="1043.11,-333.154 1051.84,-327.146 1041.27,-326.401 1043.11,-333.154"/>
</g>
<!-- CPDF_Document&#45;&gt;CPDF_Parser -->
<g id="edge8" class="edge"><title>CPDF_Document&#45;&gt;CPDF_Parser</title>
<path fill="none" stroke="black" d="M861.806,-359.69C837.907,-356.253 810.142,-351.46 786.439,-346.673"/>
<polygon fill="black" stroke="black" points="787.054,-343.226 776.552,-344.626 785.634,-350.08 787.054,-343.226"/>
</g>
<!-- CPDF_HintTables&#45;&gt;CPDF_DataAvail -->
<g id="edge9" class="edge"><title>CPDF_HintTables&#45;&gt;CPDF_DataAvail</title>
<path fill="none" stroke="gray" d="M672.227,-175.466C653.621,-177.896 632.868,-180.122 613.733,-181.753"/>
<polygon fill="gray" stroke="gray" points="613.281,-178.278 603.595,-182.571 613.844,-185.255 613.281,-178.278"/>
</g>
<!-- CPDF_HintTables&#45;&gt;CPDF_LinearizedHeader -->
<g id="edge10" class="edge"><title>CPDF_HintTables&#45;&gt;CPDF_LinearizedHeader</title>
<path fill="none" stroke="gray" d="M789.578,-163.102C802.885,-163.102 817.33,-163.102 831.569,-163.102"/>
<polygon fill="gray" stroke="gray" points="831.881,-166.602 841.881,-163.102 831.881,-159.602 831.881,-166.602"/>
</g>
<!-- CPDF_ObjectAvail -->
<g id="node7" class="node"><title>CPDF_ObjectAvail</title>
<polygon fill="none" stroke="black" points="980.5,-127.102 857.5,-127.102 857.5,-91.1016 980.5,-91.1016 980.5,-127.102"/>
<text text-anchor="middle" x="919" y="-105.402" font-family="Times,serif" font-size="14.00">CPDF_ObjectAvail</text>
</g>
<!-- CPDF_ObjectAvail&#45;&gt;CPDF_IndirectObjectHolder -->
<g id="edge20" class="edge"><title>CPDF_ObjectAvail&#45;&gt;CPDF_IndirectObjectHolder</title>
<path fill="none" stroke="gray" d="M980.712,-126.709C986.121,-129.433 991.315,-132.547 996,-136.102 997.762,-137.438 1065.87,-234.602 1099.54,-282.709"/>
<polygon fill="gray" stroke="gray" points="1096.8,-284.9 1105.4,-291.087 1102.54,-280.887 1096.8,-284.9"/>
</g>
<!-- CPDF_ObjectAvail&#45;&gt;CPDF_ReadValidator -->
<g id="edge19" class="edge"><title>CPDF_ObjectAvail&#45;&gt;CPDF_ReadValidator</title>
<path fill="none" stroke="gray" d="M980.752,-124.443C999.802,-129.254 1021.08,-134.628 1041.1,-139.682"/>
<polygon fill="gray" stroke="gray" points="1040.25,-143.078 1050.8,-142.133 1041.97,-136.291 1040.25,-143.078"/>
</g>
<!-- CPDF_PageObjectAvail&#45;&gt;CPDF_ObjectAvail -->
<g id="edge21" class="edge"><title>CPDF_PageObjectAvail&#45;&gt;CPDF_ObjectAvail</title>
<path fill="none" stroke="black" stroke-dasharray="1,5" d="M805.512,-86.1202C819.321,-88.9414 833.731,-91.8853 847.447,-94.6875"/>
<polygon fill="black" stroke="black" points="846.795,-98.1267 857.294,-96.6993 848.197,-91.2683 846.795,-98.1267"/>
</g>
<!-- CPDF_Parser&#45;&gt;CPDF_Document -->
<g id="edge23" class="edge"><title>CPDF_Parser&#45;&gt;CPDF_Document</title>
<path fill="none" stroke="gray" d="M776.552,-332.907C799.033,-335.864 826.755,-340.421 851.682,-345.195"/>
<polygon fill="gray" stroke="gray" points="851.319,-348.691 861.806,-347.177 852.664,-341.821 851.319,-348.691"/>
</g>
<!-- CPDF_Parser&#45;&gt;CPDF_LinearizedHeader -->
<g id="edge25" class="edge"><title>CPDF_Parser&#45;&gt;CPDF_LinearizedHeader</title>
<path fill="none" stroke="black" d="M750.836,-312.976C772.552,-292.193 809.444,-257.239 842,-228.102 857.032,-214.648 874.076,-200.016 888.208,-188.047"/>
<polygon fill="black" stroke="black" points="890.772,-190.463 896.155,-181.337 886.256,-185.114 890.772,-190.463"/>
</g>
<!-- CPDF_Parser&#45;&gt;CPDF_SecurityHandler -->
<g id="edge24" class="edge"><title>CPDF_Parser&#45;&gt;CPDF_SecurityHandler</title>
<path fill="none" stroke="black" d="M685.428,-337.001C668.786,-337.669 649.315,-337.944 630.35,-337.824"/>
<polygon fill="black" stroke="black" points="630.228,-334.323 620.193,-337.722 630.157,-341.323 630.228,-334.323"/>
</g>
<!-- CPDF_Parser&#45;&gt;CPDF_SyntaxParser -->
<g id="edge22" class="edge"><title>CPDF_Parser&#45;&gt;CPDF_SyntaxParser</title>
<path fill="none" stroke="black" d="M770.631,-313.011C791.581,-303.424 818.025,-291.684 842,-282.102 846.478,-280.312 851.126,-278.515 855.818,-276.746"/>
<polygon fill="black" stroke="black" points="857.313,-279.924 865.47,-273.163 854.877,-273.362 857.313,-279.924"/>
</g>
<!-- CPDF_ReadValidator&#45;&gt;FileAvail -->
<g id="edge29" class="edge"><title>CPDF_ReadValidator&#45;&gt;FileAvail</title>
<path fill="none" stroke="gray" d="M1161.95,-140.97C1183.81,-131.518 1210.5,-119.981 1232.46,-110.491"/>
<polygon fill="gray" stroke="gray" points="1234.07,-113.607 1241.86,-106.426 1231.29,-107.181 1234.07,-113.607"/>
</g>
<!-- CPDF_SecurityHandler&#45;&gt;CPDF_Parser -->
<g id="edge26" class="edge"><title>CPDF_SecurityHandler&#45;&gt;CPDF_Parser</title>
<path fill="none" stroke="gray" d="M620.193,-324.481C638.438,-324.226 657.738,-324.347 674.984,-324.844"/>
<polygon fill="gray" stroke="gray" points="675.314,-328.358 685.428,-325.203 675.554,-321.362 675.314,-328.358"/>
</g>
<!-- CPDF_SimpleParser -->
<g id="node12" class="node"><title>CPDF_SimpleParser</title>
<polygon fill="none" stroke="black" points="130,-422.102 0,-422.102 0,-386.102 130,-386.102 130,-422.102"/>
<text text-anchor="middle" x="65" y="-400.402" font-family="Times,serif" font-size="14.00">CPDF_SimpleParser</text>
</g>
<!-- CPDF_SyntaxParser&#45;&gt;CPDF_CryptoHandler -->
<g id="edge28" class="edge"><title>CPDF_SyntaxParser&#45;&gt;CPDF_CryptoHandler</title>
<path fill="none" stroke="green" d="M854.743,-272.946C850.164,-275.594 845.844,-278.628 842,-282.102 814.271,-307.162 837.328,-337.718 806,-358.102 748.993,-395.192 557.298,-385.645 448.014,-376.649"/>
<polygon fill="green" stroke="green" points="448.285,-373.16 438.027,-375.81 447.698,-380.135 448.285,-373.16"/>
</g>
<!-- CPDF_SyntaxParser&#45;&gt;CPDF_ReadValidator -->
<g id="edge27" class="edge"><title>CPDF_SyntaxParser&#45;&gt;CPDF_ReadValidator</title>
<path fill="none" stroke="green" d="M964.886,-236.944C975.182,-232.574 986.03,-227.805 996,-223.102 1023.21,-210.263 1053.14,-194.588 1076.54,-181.964"/>
<polygon fill="green" stroke="green" points="1078.37,-184.953 1085.5,-177.111 1075.04,-178.799 1078.37,-184.953"/>
</g>
<!-- CFDF_Document -->
<g id="node14" class="node"><title>CFDF_Document</title>
<polygon fill="none" stroke="black" points="976,-327.102 862,-327.102 862,-291.102 976,-291.102 976,-327.102"/>
<text text-anchor="middle" x="919" y="-305.402" font-family="Times,serif" font-size="14.00">CFDF_Document</text>
</g>
<!-- CFDF_Document&#45;&gt;CPDF_IndirectObjectHolder -->
<g id="edge31" class="edge"><title>CFDF_Document&#45;&gt;CPDF_IndirectObjectHolder</title>
<path fill="none" stroke="black" stroke-dasharray="1,5" d="M976.209,-309.102C990.559,-309.102 1006.39,-309.102 1022.12,-309.102"/>
<polygon fill="black" stroke="black" points="1022.43,-312.602 1032.43,-309.102 1022.43,-305.602 1022.43,-312.602"/>
</g>
<!-- CPDF_Creator -->
<g id="node15" class="node"><title>CPDF_Creator</title>
<polygon fill="none" stroke="black" points="264,-364.102 166,-364.102 166,-328.102 264,-328.102 264,-364.102"/>
<text text-anchor="middle" x="215" y="-342.402" font-family="Times,serif" font-size="14.00">CPDF_Creator</text>
</g>
<!-- CPDF_Creator&#45;&gt;CPDF_CryptoHandler -->
<g id="edge35" class="edge"><title>CPDF_Creator&#45;&gt;CPDF_CryptoHandler</title>
<path fill="none" stroke="green" d="M264.094,-353.379C272.372,-354.632 281.163,-355.962 289.991,-357.298"/>
<polygon fill="green" stroke="green" points="289.536,-360.769 299.947,-358.804 290.583,-353.847 289.536,-360.769"/>
</g>
<!-- CPDF_Creator&#45;&gt;CPDF_Document -->
<g id="edge33" class="edge"><title>CPDF_Creator&#45;&gt;CPDF_Document</title>
<path fill="none" stroke="gray" d="M255.371,-364.18C258.328,-365.776 261.235,-367.424 264,-369.102 281.101,-379.473 281.026,-389.777 300,-396.102 492.146,-460.15 736.405,-411.981 851.847,-382.13"/>
<polygon fill="gray" stroke="gray" points="852.823,-385.492 861.608,-379.57 851.047,-378.721 852.823,-385.492"/>
</g>
<!-- CPDF_Creator&#45;&gt;CPDF_Parser -->
<g id="edge34" class="edge"><title>CPDF_Creator&#45;&gt;CPDF_Parser</title>
<path fill="none" stroke="gray" d="M264.255,-334.095C340.077,-316.805 491.712,-288.587 620,-304.102 638.277,-306.312 657.899,-310.517 675.436,-314.962"/>
<polygon fill="gray" stroke="gray" points="674.935,-318.448 685.495,-317.593 676.707,-311.676 674.935,-318.448"/>
</g>
<!-- CPDF_Creator&#45;&gt;CPDF_SecurityHandler -->
<g id="edge36" class="edge"><title>CPDF_Creator&#45;&gt;CPDF_SecurityHandler</title>
<path fill="none" stroke="black" d="M264.416,-343.772C276.068,-343.218 288.478,-342.634 300,-342.102 354.507,-339.585 415.812,-336.844 463.587,-334.727"/>
<polygon fill="black" stroke="black" points="464.042,-338.21 473.878,-334.272 463.732,-331.217 464.042,-338.21"/>
</g>
<!-- CFPDF_DataAvail -->
<g id="node16" class="node"><title>CFPDF_DataAvail</title>
<polygon fill="none" stroke="black" points="429,-219.102 309,-219.102 309,-183.102 429,-183.102 429,-219.102"/>
<text text-anchor="middle" x="369" y="-197.402" font-family="Times,serif" font-size="14.00">CFPDF_DataAvail</text>
</g>
<!-- CFPDF_DataAvail&#45;&gt;CPDF_DataAvail -->
<g id="edge32" class="edge"><title>CFPDF_DataAvail&#45;&gt;CPDF_DataAvail</title>
<path fill="none" stroke="gray" d="M429.095,-194.722C445.469,-192.954 463.346,-191.024 480.083,-189.218"/>
<polygon fill="gray" stroke="gray" points="480.767,-192.664 490.333,-188.111 480.015,-185.705 480.767,-192.664"/>
</g>
<!-- CPDFXFA_Context -->
<g id="node17" class="node"><title>CPDFXFA_Context</title>
<polygon fill="none" stroke="black" points="794.5,-517.102 667.5,-517.102 667.5,-481.102 794.5,-481.102 794.5,-517.102"/>
<text text-anchor="middle" x="731" y="-495.402" font-family="Times,serif" font-size="14.00">CPDFXFA_Context</text>
</g>
<!-- CPDFXFA_Context&#45;&gt;CPDF_Document -->
<g id="edge6" class="edge"><title>CPDFXFA_Context&#45;&gt;CPDF_Document</title>
<path fill="none" stroke="black" d="M780.215,-481.092C789.072,-477 798.03,-472.304 806,-467.102 840.188,-444.787 873.738,-411.729 895.067,-388.901"/>
<polygon fill="black" stroke="black" points="897.88,-391.014 902.082,-381.288 892.732,-386.27 897.88,-391.014"/>
</g>
<!-- FPDF_DOCUMENT -->
<g id="node18" class="node"><title>FPDF_DOCUMENT</title>
<polygon fill="none" stroke="black" points="613.5,-479.102 480.5,-479.102 480.5,-443.102 613.5,-443.102 613.5,-479.102"/>
<text text-anchor="middle" x="547" y="-457.402" font-family="Times,serif" font-size="14.00">FPDF_DOCUMENT</text>
</g>
<!-- FPDF_DOCUMENT&#45;&gt;CPDF_Document -->
<g id="edge4" class="edge"><title>FPDF_DOCUMENT&#45;&gt;CPDF_Document</title>
<path fill="none" stroke="black" d="M613.515,-460.298C666.669,-457.927 742.867,-450.582 806,-429.102 834.732,-419.326 864.183,-401.609 885.669,-386.992"/>
<polygon fill="black" stroke="black" points="887.856,-389.734 894.074,-381.155 883.864,-383.984 887.856,-389.734"/>
</g>
<!-- FPDF_DOCUMENT&#45;&gt;CPDFXFA_Context -->
<g id="edge5" class="edge"><title>FPDF_DOCUMENT&#45;&gt;CPDFXFA_Context</title>
<path fill="none" stroke="black" d="M613.706,-474.82C627.935,-477.791 643.061,-480.95 657.534,-483.971"/>
<polygon fill="black" stroke="black" points="656.925,-487.42 667.43,-486.037 658.356,-480.567 656.925,-487.42"/>
</g>
<!-- FPDF_AVAIL -->
<g id="node19" class="node"><title>FPDF_AVAIL</title>
<polygon fill="none" stroke="black" points="264,-234.102 166,-234.102 166,-198.102 264,-198.102 264,-234.102"/>
<text text-anchor="middle" x="215" y="-212.402" font-family="Times,serif" font-size="14.00">FPDF_AVAIL</text>
</g>
<!-- FPDF_AVAIL&#45;&gt;CFPDF_DataAvail -->
<g id="edge3" class="edge"><title>FPDF_AVAIL&#45;&gt;CFPDF_DataAvail</title>
<path fill="none" stroke="black" d="M264.094,-211.356C275.059,-210.273 286.924,-209.103 298.581,-207.952"/>
<polygon fill="black" stroke="black" points="299.135,-211.415 308.743,-206.949 298.448,-204.448 299.135,-211.415"/>
</g>
<!-- Embedder -->
<g id="node20" class="node"><title>Embedder</title>
<polygon fill="none" stroke="black" points="101.5,-323.102 28.5,-323.102 28.5,-287.102 101.5,-287.102 101.5,-323.102"/>
<text text-anchor="middle" x="65" y="-301.402" font-family="Times,serif" font-size="14.00">Embedder</text>
</g>
<!-- Embedder&#45;&gt;FPDF_DOCUMENT -->
<g id="edge2" class="edge"><title>Embedder&#45;&gt;FPDF_DOCUMENT</title>
<path fill="none" stroke="black" d="M89.7894,-323.295C109.526,-337.885 138.68,-358.3 166,-373.102 222.753,-403.849 237.666,-412.346 300,-429.102 355.915,-444.132 420.944,-452.201 470.095,-456.475"/>
<polygon fill="black" stroke="black" points="470.077,-459.986 480.333,-457.331 470.66,-453.01 470.077,-459.986"/>
</g>
<!-- Embedder&#45;&gt;FPDF_AVAIL -->
<g id="edge1" class="edge"><title>Embedder&#45;&gt;FPDF_AVAIL</title>
<path fill="none" stroke="black" d="M95.95,-287.091C118.744,-273.384 150.304,-254.405 175.058,-239.519"/>
<polygon fill="black" stroke="black" points="177.075,-242.391 183.841,-234.238 173.467,-236.392 177.075,-242.391"/>
</g>
<!-- src -->
<g id="node22" class="node"><title>src</title>
<text text-anchor="start" x="55" y="-552.402" font-family="Times,serif" font-size="14.00">Inherit</text>
<text text-anchor="start" x="60" y="-532.902" font-family="Times,serif" font-size="14.00">Owns</text>
<text text-anchor="start" x="51" y="-513.902" font-family="Times,serif" font-size="14.00">Retains</text>
<text text-anchor="start" x="39" y="-494.902" font-family="Times,serif" font-size="14.00">Unowned</text>
</g>
<!-- sink -->
<g id="node23" class="node"><title>sink</title>
<text text-anchor="start" x="213.5" y="-552.402" font-family="Times,serif" font-size="14.00"> </text>
<text text-anchor="start" x="213.5" y="-532.902" font-family="Times,serif" font-size="14.00"> </text>
<text text-anchor="start" x="213.5" y="-513.902" font-family="Times,serif" font-size="14.00"> </text>
<text text-anchor="start" x="213.5" y="-494.902" font-family="Times,serif" font-size="14.00"> </text>
</g>
<!-- src&#45;&gt;sink -->
<g id="edge37" class="edge"><title>src:inherit:e&#45;&gt;sink:inherit:w</title>
<path fill="none" stroke="black" stroke-dasharray="1,5" d="M95,-556.102C142.517,-556.102 156.902,-556.102 199.761,-556.102"/>
<polygon fill="black" stroke="black" points="200,-559.602 210,-556.102 200,-552.602 200,-559.602"/>
</g>
<!-- src&#45;&gt;sink -->
<g id="edge38" class="edge"><title>src:own:e&#45;&gt;sink:own:w</title>
<path fill="none" stroke="black" d="M95,-537.102C142.517,-537.102 156.902,-537.102 199.761,-537.102"/>
<polygon fill="black" stroke="black" points="200,-540.602 210,-537.102 200,-533.602 200,-540.602"/>
</g>
<!-- src&#45;&gt;sink -->
<g id="edge39" class="edge"><title>src:retain:e&#45;&gt;sink:retain:w</title>
<path fill="none" stroke="green" d="M95,-517.102C142.517,-517.102 156.902,-517.102 199.761,-517.102"/>
<polygon fill="green" stroke="green" points="200,-520.602 210,-517.102 200,-513.602 200,-520.602"/>
</g>
<!-- src&#45;&gt;sink -->
<g id="edge40" class="edge"><title>src:unown:e&#45;&gt;sink:unown:w</title>
<path fill="none" stroke="gray" d="M95,-498.102C142.517,-498.102 156.902,-498.102 199.761,-498.102"/>
<polygon fill="gray" stroke="gray" points="200,-501.602 210,-498.102 200,-494.602 200,-501.602"/>
</g>
</g>
</svg>
