<?xml version="1.0" encoding="UTF-8" standalone="no"?>
<!DOCTYPE svg PUBLIC "-//W3C//DTD SVG 1.1//EN"
 "http://www.w3.org/Graphics/SVG/1.1/DTD/svg11.dtd">
<!-- Generated by graphviz version 2.36.0 (20140111.2315)
 -->
<!-- Title: parser Pages: 1 -->
<svg width="1196pt" height="425pt"
 viewBox="0.00 0.00 1196.00 424.57" xmlns="http://www.w3.org/2000/svg" xmlns:xlink="http://www.w3.org/1999/xlink">
<g id="graph0" class="graph" transform="scale(1 1) rotate(0) translate(4 420.565)">
<title>parser</title>
<polygon fill="white" stroke="none" points="-4,4 -4,-420.565 1192,-420.565 1192,4 -4,4"/>
<g id="clust1" class="cluster"><title>cluster_01</title>
<polygon fill="none" stroke="black" points="21,-266.565 21,-386.565 266,-386.565 266,-266.565 21,-266.565"/>
<text text-anchor="middle" x="143.5" y="-371.365" font-family="Times,serif" font-size="14.00">Legend</text>
</g>
<!-- CPDF_CryptoHandler -->
<g id="node1" class="node"><title>CPDF_CryptoHandler</title>
<polygon fill="none" stroke="black" points="1188,-388.565 1046,-388.565 1046,-352.565 1188,-352.565 1188,-388.565"/>
<text text-anchor="middle" x="1117" y="-366.365" font-family="Times,serif" font-size="14.00">CPDF_CryptoHandler</text>
</g>
<!-- CPDF_DataAvail -->
<g id="node2" class="node"><title>CPDF_DataAvail</title>
<polygon fill="none" stroke="black" points="443.021,-202.565 328.979,-202.565 328.979,-166.565 443.021,-166.565 443.021,-202.565"/>
<text text-anchor="middle" x="386" y="-180.365" font-family="Times,serif" font-size="14.00">CPDF_DataAvail</text>
</g>
<!-- CPDF_Document -->
<g id="node3" class="node"><title>CPDF_Document</title>
<polygon fill="none" stroke="black" points="615.338,-332.565 498.662,-332.565 498.662,-296.565 615.338,-296.565 615.338,-332.565"/>
<text text-anchor="middle" x="557" y="-310.365" font-family="Times,serif" font-size="14.00">CPDF_Document</text>
</g>
<!-- CPDF_DataAvail&#45;&gt;CPDF_Document -->
<g id="edge10" class="edge"><title>CPDF_DataAvail&#45;&gt;CPDF_Document</title>
<path fill="none" stroke="gray" d="M400.331,-202.635C416.954,-224.111 447.204,-259.885 480,-282.565 484.903,-285.956 490.222,-289.09 495.692,-291.962"/>
<polygon fill="gray" stroke="gray" points="494.475,-295.264 504.992,-296.546 497.569,-288.986 494.475,-295.264"/>
</g>
<!-- CPDF_HintTables -->
<g id="node4" class="node"><title>CPDF_HintTables</title>
<polygon fill="none" stroke="black" points="616.75,-202.565 497.25,-202.565 497.25,-166.565 616.75,-166.565 616.75,-202.565"/>
<text text-anchor="middle" x="557" y="-180.365" font-family="Times,serif" font-size="14.00">CPDF_HintTables</text>
</g>
<!-- CPDF_DataAvail&#45;&gt;CPDF_HintTables -->
<g id="edge11" class="edge"><title>CPDF_DataAvail&#45;&gt;CPDF_HintTables</title>
<path fill="none" stroke="black" d="M443.275,-178.162C457.395,-177.802 472.705,-177.723 487.354,-177.922"/>
<polygon fill="black" stroke="black" points="487.306,-181.422 497.368,-178.105 487.434,-174.423 487.306,-181.422"/>
</g>
<!-- CPDF_LinearizedHeader -->
<g id="node6" class="node"><title>CPDF_LinearizedHeader</title>
<polygon fill="none" stroke="black" points="1000.28,-248.565 841.717,-248.565 841.717,-212.565 1000.28,-212.565 1000.28,-248.565"/>
<text text-anchor="middle" x="921" y="-226.365" font-family="Times,serif" font-size="14.00">CPDF_LinearizedHeader</text>
</g>
<!-- CPDF_DataAvail&#45;&gt;CPDF_LinearizedHeader -->
<g id="edge9" class="edge"><title>CPDF_DataAvail&#45;&gt;CPDF_LinearizedHeader</title>
<path fill="none" stroke="black" d="M441.084,-202.628C453.722,-206.187 467.226,-209.466 480,-211.565 600.597,-231.38 742.129,-233.858 831.441,-232.924"/>
<polygon fill="black" stroke="black" points="831.573,-236.423 841.53,-232.802 831.488,-229.423 831.573,-236.423"/>
</g>
<!-- CPDF_PageObjectAvail -->
<g id="node8" class="node"><title>CPDF_PageObjectAvail</title>
<polygon fill="none" stroke="black" points="633.124,-148.565 480.876,-148.565 480.876,-112.565 633.124,-112.565 633.124,-148.565"/>
<text text-anchor="middle" x="557" y="-126.365" font-family="Times,serif" font-size="14.00">CPDF_PageObjectAvail</text>
</g>
<!-- CPDF_DataAvail&#45;&gt;CPDF_PageObjectAvail -->
<g id="edge12" class="edge"><title>CPDF_DataAvail&#45;&gt;CPDF_PageObjectAvail</title>
<path fill="none" stroke="black" d="M443.275,-166.584C458.083,-161.852 474.197,-156.703 489.488,-151.818"/>
<polygon fill="black" stroke="black" points="490.935,-155.03 499.395,-148.652 488.804,-148.362 490.935,-155.03"/>
</g>
<!-- CPDF_Parser -->
<g id="node9" class="node"><title>CPDF_Parser</title>
<polygon fill="none" stroke="black" points="779.507,-374.565 686.493,-374.565 686.493,-338.565 779.507,-338.565 779.507,-374.565"/>
<text text-anchor="middle" x="733" y="-352.365" font-family="Times,serif" font-size="14.00">CPDF_Parser</text>
</g>
<!-- CPDF_DataAvail&#45;&gt;CPDF_Parser -->
<g id="edge7" class="edge"><title>CPDF_DataAvail&#45;&gt;CPDF_Parser</title>
<path fill="none" stroke="black" d="M391.641,-202.625C401.45,-236.659 427.802,-309.725 480,-341.565 539.404,-377.801 622.052,-374.861 676.264,-367.399"/>
<polygon fill="black" stroke="black" points="676.994,-370.83 686.378,-365.91 675.974,-363.904 676.994,-370.83"/>
</g>
<!-- CPDF_ReadValidator -->
<g id="node10" class="node"><title>CPDF_ReadValidator</title>
<polygon fill="none" stroke="black" points="1186.1,-110.565 1047.9,-110.565 1047.9,-74.5652 1186.1,-74.5652 1186.1,-110.565"/>
<text text-anchor="middle" x="1117" y="-88.3652" font-family="Times,serif" font-size="14.00">CPDF_ReadValidator</text>
</g>
<!-- CPDF_DataAvail&#45;&gt;CPDF_ReadValidator -->
<g id="edge6" class="edge"><title>CPDF_DataAvail&#45;&gt;CPDF_ReadValidator</title>
<path fill="none" stroke="green" d="M393.173,-166.318C404.681,-135.593 432.634,-74.4525 480,-49.5652 673.482,52.0958 946.953,-28.6896 1061.84,-70.9247"/>
<polygon fill="green" stroke="green" points="1060.89,-74.3031 1071.48,-74.5139 1063.33,-67.7434 1060.89,-74.3031"/>
</g>
<!-- CPDF_SyntaxParser -->
<g id="node13" class="node"><title>CPDF_SyntaxParser</title>
<polygon fill="none" stroke="black" points="986.897,-322.565 855.103,-322.565 855.103,-286.565 986.897,-286.565 986.897,-322.565"/>
<text text-anchor="middle" x="921" y="-300.365" font-family="Times,serif" font-size="14.00">CPDF_SyntaxParser</text>
</g>
<!-- CPDF_DataAvail&#45;&gt;CPDF_SyntaxParser -->
<g id="edge8" class="edge"><title>CPDF_DataAvail&#45;&gt;CPDF_SyntaxParser</title>
<path fill="none" stroke="black" d="M414.779,-202.701C432.7,-213.577 456.9,-226.768 480,-234.565 603.846,-276.369 755.915,-293.484 844.982,-300.29"/>
<polygon fill="black" stroke="black" points="844.762,-303.783 854.993,-301.032 845.279,-296.802 844.762,-303.783"/>
</g>
<!-- FileAvail -->
<g id="node18" class="node"><title>FileAvail</title>
<polygon fill="none" stroke="black" points="590.851,-94.5652 523.149,-94.5652 523.149,-58.5652 590.851,-58.5652 590.851,-94.5652"/>
<text text-anchor="middle" x="557" y="-72.3652" font-family="Times,serif" font-size="14.00">FileAvail</text>
</g>
<!-- CPDF_DataAvail&#45;&gt;FileAvail -->
<g id="edge5" class="edge"><title>CPDF_DataAvail&#45;&gt;FileAvail</title>
<path fill="none" stroke="gray" d="M403.948,-166.229C421.49,-148.171 450.424,-120.853 480,-103.565 490.285,-97.5536 502.128,-92.5557 513.357,-88.5616"/>
<polygon fill="gray" stroke="gray" points="514.653,-91.8185 523.013,-85.3099 512.419,-85.1846 514.653,-91.8185"/>
</g>
<!-- CPDF_IndirectObjectHolder -->
<g id="node5" class="node"><title>CPDF_IndirectObjectHolder</title>
<polygon fill="none" stroke="black" points="1009.75,-164.565 832.255,-164.565 832.255,-128.565 1009.75,-128.565 1009.75,-164.565"/>
<text text-anchor="middle" x="921" y="-142.365" font-family="Times,serif" font-size="14.00">CPDF_IndirectObjectHolder</text>
</g>
<!-- CPDF_Document&#45;&gt;CPDF_IndirectObjectHolder -->
<g id="edge1" class="edge"><title>CPDF_Document&#45;&gt;CPDF_IndirectObjectHolder</title>
<path fill="none" stroke="black" stroke-dasharray="1,5" d="M597.084,-296.427C663.747,-265.489 799.236,-202.61 871.71,-168.976"/>
<polygon fill="black" stroke="black" points="873.482,-172.012 881.079,-164.628 870.535,-165.663 873.482,-172.012"/>
</g>
<!-- CPDF_Document&#45;&gt;CPDF_Parser -->
<g id="edge2" class="edge"><title>CPDF_Document&#45;&gt;CPDF_Parser</title>
<path fill="none" stroke="black" d="M615.456,-322.043C635.187,-326.308 657.219,-331.646 676.769,-336.901"/>
<polygon fill="black" stroke="black" points="675.873,-340.284 686.442,-339.551 677.723,-333.533 675.873,-340.284"/>
</g>
<!-- CPDF_HintTables&#45;&gt;CPDF_DataAvail -->
<g id="edge3" class="edge"><title>CPDF_HintTables&#45;&gt;CPDF_DataAvail</title>
<path fill="none" stroke="gray" d="M497.368,-191.026C483.258,-191.351 468.083,-191.402 453.638,-191.179"/>
<polygon fill="gray" stroke="gray" points="453.344,-187.673 443.275,-190.969 453.201,-194.671 453.344,-187.673"/>
</g>
<!-- CPDF_HintTables&#45;&gt;CPDF_LinearizedHeader -->
<g id="edge4" class="edge"><title>CPDF_HintTables&#45;&gt;CPDF_LinearizedHeader</title>
<path fill="none" stroke="gray" d="M616.967,-192.058C675.184,-199.456 764.929,-210.86 831.662,-219.34"/>
<polygon fill="gray" stroke="gray" points="831.389,-222.833 841.75,-220.622 832.271,-215.889 831.389,-222.833"/>
</g>
<!-- CPDF_ObjectAvail -->
<g id="node7" class="node"><title>CPDF_ObjectAvail</title>
<polygon fill="none" stroke="black" points="795.91,-110.565 670.09,-110.565 670.09,-74.5652 795.91,-74.5652 795.91,-110.565"/>
<text text-anchor="middle" x="733" y="-88.3652" font-family="Times,serif" font-size="14.00">CPDF_ObjectAvail</text>
</g>
<!-- CPDF_ObjectAvail&#45;&gt;CPDF_IndirectObjectHolder -->
<g id="edge14" class="edge"><title>CPDF_ObjectAvail&#45;&gt;CPDF_IndirectObjectHolder</title>
<path fill="none" stroke="gray" d="M795.935,-110.546C812.543,-115.368 830.645,-120.623 847.758,-125.592"/>
<polygon fill="gray" stroke="gray" points="847.122,-129.051 857.701,-128.478 849.073,-122.329 847.122,-129.051"/>
</g>
<!-- CPDF_ObjectAvail&#45;&gt;CPDF_ReadValidator -->
<g id="edge13" class="edge"><title>CPDF_ObjectAvail&#45;&gt;CPDF_ReadValidator</title>
<path fill="none" stroke="gray" d="M795.799,-92.5652C861.612,-92.5652 965.953,-92.5652 1037.53,-92.5652"/>
<polygon fill="gray" stroke="gray" points="1037.84,-96.0653 1047.84,-92.5652 1037.84,-89.0653 1037.84,-96.0653"/>
</g>
<!-- CPDF_PageObjectAvail&#45;&gt;CPDF_ObjectAvail -->
<g id="edge15" class="edge"><title>CPDF_PageObjectAvail&#45;&gt;CPDF_ObjectAvail</title>
<path fill="none" stroke="black" stroke-dasharray="1,5" d="M633.307,-114.119C642.249,-112.166 651.359,-110.176 660.25,-108.235"/>
<polygon fill="black" stroke="black" points="661.151,-111.621 670.174,-106.067 659.657,-104.782 661.151,-111.621"/>
</g>
<!-- CPDF_Parser&#45;&gt;CPDF_Document -->
<g id="edge17" class="edge"><title>CPDF_Parser&#45;&gt;CPDF_Document</title>
<path fill="none" stroke="gray" d="M686.358,-351.569C665.213,-347.271 639.821,-341.28 617.222,-335.295"/>
<polygon fill="gray" stroke="gray" points="617.963,-331.869 607.396,-332.643 616.139,-338.628 617.963,-331.869"/>
</g>
<!-- CPDF_Parser&#45;&gt;CPDF_LinearizedHeader -->
<g id="edge19" class="edge"><title>CPDF_Parser&#45;&gt;CPDF_LinearizedHeader</title>
<path fill="none" stroke="black" d="M754.163,-338.431C773.396,-321.597 803.568,-296.377 832,-277.565 844.91,-269.024 859.532,-260.717 873.096,-253.523"/>
<polygon fill="black" stroke="black" points="875.036,-256.459 882.284,-248.731 871.799,-250.253 875.036,-256.459"/>
</g>
<!-- CPDF_SecurityHandler -->
<g id="node11" class="node"><title>CPDF_SecurityHandler</title>
<polygon fill="none" stroke="black" points="995.766,-376.565 846.234,-376.565 846.234,-340.565 995.766,-340.565 995.766,-376.565"/>
<text text-anchor="middle" x="921" y="-354.365" font-family="Times,serif" font-size="14.00">CPDF_SecurityHandler</text>
</g>
<!-- CPDF_Parser&#45;&gt;CPDF_SecurityHandler -->
<g id="edge18" class="edge"><title>CPDF_Parser&#45;&gt;CPDF_SecurityHandler</title>
<path fill="none" stroke="black" d="M779.978,-351.144C796.925,-350.668 816.7,-350.612 835.958,-350.939"/>
<polygon fill="black" stroke="black" points="835.894,-354.439 845.964,-351.145 836.038,-347.44 835.894,-354.439"/>
</g>
<!-- CPDF_Parser&#45;&gt;CPDF_SyntaxParser -->
<g id="edge16" class="edge"><title>CPDF_Parser&#45;&gt;CPDF_SyntaxParser</title>
<path fill="none" stroke="black" d="M779.978,-343.711C799.844,-338.157 823.596,-331.517 845.845,-325.297"/>
<polygon fill="black" stroke="black" points="846.918,-328.631 855.607,-322.568 845.034,-321.889 846.918,-328.631"/>
</g>
<!-- CPDF_SecurityHandler&#45;&gt;CPDF_Parser -->
<g id="edge20" class="edge"><title>CPDF_SecurityHandler&#45;&gt;CPDF_Parser</title>
<path fill="none" stroke="gray" d="M845.964,-364.393C827.336,-364.444 807.648,-364.108 790.064,-363.421"/>
<polygon fill="gray" stroke="gray" points="790.122,-359.92 779.978,-362.975 789.813,-366.913 790.122,-359.92"/>
</g>
<!-- CPDF_SimpleParser -->
<g id="node12" class="node"><title>CPDF_SimpleParser</title>
<polygon fill="none" stroke="black" points="133.176,-256.565 0.823824,-256.565 0.823824,-220.565 133.176,-220.565 133.176,-256.565"/>
<text text-anchor="middle" x="67" y="-234.365" font-family="Times,serif" font-size="14.00">CPDF_SimpleParser</text>
</g>
<!-- CPDF_SyntaxParser&#45;&gt;CPDF_CryptoHandler -->
<g id="edge22" class="edge"><title>CPDF_SyntaxParser&#45;&gt;CPDF_CryptoHandler</title>
<path fill="none" stroke="green" d="M982.259,-322.573C991.575,-325.496 1001.07,-328.553 1010,-331.565 1026,-336.96 1043.24,-343.139 1059.06,-348.964"/>
<polygon fill="green" stroke="green" points="1058.11,-352.345 1068.71,-352.535 1060.54,-345.781 1058.11,-352.345"/>
</g>
<!-- CPDF_SyntaxParser&#45;&gt;CPDF_ReadValidator -->
<g id="edge21" class="edge"><title>CPDF_SyntaxParser&#45;&gt;CPDF_ReadValidator</title>
<path fill="none" stroke="green" d="M966.026,-286.561C981.057,-279.051 997.27,-269.31 1010,-257.565 1053.57,-217.364 1086.91,-155.513 1103.78,-120.063"/>
<polygon fill="green" stroke="green" points="1107.04,-121.347 1108.1,-110.805 1100.7,-118.39 1107.04,-121.347"/>
</g>
<!-- CFDF_Document -->
<g id="node14" class="node"><title>CFDF_Document</title>
<polygon fill="none" stroke="black" points="791.338,-164.565 674.662,-164.565 674.662,-128.565 791.338,-128.565 791.338,-164.565"/>
<text text-anchor="middle" x="733" y="-142.365" font-family="Times,serif" font-size="14.00">CFDF_Document</text>
</g>
<!-- CFDF_Document&#45;&gt;CPDF_IndirectObjectHolder -->
<g id="edge23" class="edge"><title>CFDF_Document&#45;&gt;CPDF_IndirectObjectHolder</title>
<path fill="none" stroke="black" stroke-dasharray="1,5" d="M791.324,-146.565C801.111,-146.565 811.52,-146.565 822.014,-146.565"/>
<polygon fill="black" stroke="black" points="822.084,-150.065 832.084,-146.565 822.084,-143.065 822.084,-150.065"/>
</g>
<!-- FPDF_AVAIL -->
<g id="node15" class="node"><title>FPDF_AVAIL</title>
<polygon fill="none" stroke="black" points="115.405,-202.565 18.5949,-202.565 18.5949,-166.565 115.405,-166.565 115.405,-202.565"/>
<text text-anchor="middle" x="67" y="-180.365" font-family="Times,serif" font-size="14.00">FPDF_AVAIL</text>
</g>
<!-- CFPDF_DataAvail -->
<g id="node16" class="node"><title>CFPDF_DataAvail</title>
<polygon fill="none" stroke="black" points="292.306,-202.565 169.694,-202.565 169.694,-166.565 292.306,-166.565 292.306,-202.565"/>
<text text-anchor="middle" x="231" y="-180.365" font-family="Times,serif" font-size="14.00">CFPDF_DataAvail</text>
</g>
<!-- FPDF_AVAIL&#45;&gt;CFPDF_DataAvail -->
<g id="edge24" class="edge"><title>FPDF_AVAIL&#45;&gt;CFPDF_DataAvail</title>
<path fill="none" stroke="black" stroke-dasharray="1,5" d="M115.293,-184.565C129.103,-184.565 144.504,-184.565 159.426,-184.565"/>
<polygon fill="black" stroke="black" points="159.654,-188.065 169.654,-184.565 159.654,-181.065 159.654,-188.065"/>
</g>
<!-- CFPDF_DataAvail&#45;&gt;CPDF_DataAvail -->
<g id="edge25" class="edge"><title>CFPDF_DataAvail&#45;&gt;CPDF_DataAvail</title>
<path fill="none" stroke="gray" d="M292.47,-184.565C301.115,-184.565 310.046,-184.565 318.794,-184.565"/>
<polygon fill="gray" stroke="gray" points="318.951,-188.065 328.951,-184.565 318.951,-181.065 318.951,-188.065"/>
</g>
<!-- CPDF_Creator -->
<g id="node17" class="node"><title>CPDF_Creator</title>
<polygon fill="none" stroke="black" points="436,-416.565 336,-416.565 336,-380.565 436,-380.565 436,-416.565"/>
<text text-anchor="middle" x="386" y="-394.365" font-family="Times,serif" font-size="14.00">CPDF_Creator</text>
</g>
<!-- CPDF_Creator&#45;&gt;CPDF_CryptoHandler -->
<g id="edge28" class="edge"><title>CPDF_Creator&#45;&gt;CPDF_CryptoHandler</title>
<path fill="none" stroke="green" d="M436.382,-399.722C541.911,-401.714 797.132,-403.969 1010,-385.565 1018.38,-384.84 1027.12,-383.903 1035.82,-382.85"/>
<polygon fill="green" stroke="green" points="1036.51,-386.291 1045.99,-381.567 1035.63,-379.346 1036.51,-386.291"/>
</g>
<!-- CPDF_Creator&#45;&gt;CPDF_Document -->
<g id="edge26" class="edge"><title>CPDF_Creator&#45;&gt;CPDF_Document</title>
<path fill="none" stroke="gray" d="M423.255,-380.545C448.786,-367.855 483.154,-350.773 510.523,-337.169"/>
<polygon fill="gray" stroke="gray" points="512.117,-340.285 519.514,-332.7 509.001,-334.017 512.117,-340.285"/>
</g>
<!-- CPDF_Creator&#45;&gt;CPDF_Parser -->
<g id="edge27" class="edge"><title>CPDF_Creator&#45;&gt;CPDF_Parser</title>
<path fill="none" stroke="gray" d="M436.352,-395.008C486.315,-391.117 565.733,-384.134 634,-374.565 647.785,-372.633 662.587,-370.137 676.404,-367.623"/>
<polygon fill="gray" stroke="gray" points="677.067,-371.059 686.263,-365.796 675.792,-364.177 677.067,-371.059"/>
</g>
<!-- src -->
<g id="node19" class="node"><title>src</title>
<text text-anchor="start" x="57.6826" y="-337.865" font-family="Times,serif" font-size="14.00">Inherit</text>
<text text-anchor="start" x="62.3311" y="-319.365" font-family="Times,serif" font-size="14.00">Owns</text>
<text text-anchor="start" x="53.0068" y="-301.365" font-family="Times,serif" font-size="14.00">Retains</text>
<text text-anchor="start" x="40.5654" y="-283.365" font-family="Times,serif" font-size="14.00">Unowned</text>
</g>
<!-- sink -->
<g id="node20" class="node"><title>sink</title>
<text text-anchor="start" x="229.25" y="-337.865" font-family="Times,serif" font-size="14.00"> </text>
<text text-anchor="start" x="229.25" y="-319.365" font-family="Times,serif" font-size="14.00"> </text>
<text text-anchor="start" x="229.25" y="-301.365" font-family="Times,serif" font-size="14.00"> </text>
<text text-anchor="start" x="229.25" y="-283.365" font-family="Times,serif" font-size="14.00"> </text>
</g>
<!-- src&#45;&gt;sink -->
<g id="edge29" class="edge"><title>src:inherit:e&#45;&gt;sink:inherit:w</title>
<path fill="none" stroke="black" stroke-dasharray="1,5" d="M98,-342.565C151.333,-342.565 167.167,-342.565 215.812,-342.565"/>
<polygon fill="black" stroke="black" points="216,-346.065 226,-342.565 216,-339.065 216,-346.065"/>
</g>
<!-- src&#45;&gt;sink -->
<g id="edge30" class="edge"><title>src:own:e&#45;&gt;sink:own:w</title>
<path fill="none" stroke="black" d="M98,-323.565C151.333,-323.565 167.167,-323.565 215.812,-323.565"/>
<polygon fill="black" stroke="black" points="216,-327.065 226,-323.565 216,-320.065 216,-327.065"/>
</g>
<!-- src&#45;&gt;sink -->
<g id="edge31" class="edge"><title>src:retain:e&#45;&gt;sink:retain:w</title>
<path fill="none" stroke="green" d="M98,-305.565C151.333,-305.565 167.167,-305.565 215.812,-305.565"/>
<polygon fill="green" stroke="green" points="216,-309.065 226,-305.565 216,-302.065 216,-309.065"/>
</g>
<!-- src&#45;&gt;sink -->
<g id="edge32" class="edge"><title>src:unown:e&#45;&gt;sink:unown:w</title>
<path fill="none" stroke="gray" d="M98,-287.565C151.333,-287.565 167.167,-287.565 215.812,-287.565"/>
<polygon fill="gray" stroke="gray" points="216,-291.065 226,-287.565 216,-284.065 216,-291.065"/>
</g>
</g>
</svg>
